<svg width="79" height="79" viewBox="0 0 79 79" fill="none" xmlns="http://www.w3.org/2000/svg">
<g clip-path="url(#clip0)">
<path d="M71.9745 0.727748C71.7 0.710596 52.6093 0.926221 52.6093 0.926221C49.2057 0.967876 46.4834 4.29046 46.5299 7.69636C46.5716 11.0704 49.3258 14.3072 52.6926 14.3072C52.7171 14.3072 52.744 14.3072 52.7734 14.3072L56.3314 13.729L49.8477 19.9576C44.5721 16.2797 38.3212 14.148 31.7567 14.148C23.2711 14.148 15.2951 17.3872 9.29421 23.388C-3.09237 35.7742 -3.09237 55.8959 9.29421 68.2821C15.2951 74.2804 23.2711 77.5687 31.7567 77.5687C40.2423 77.5687 48.2158 74.251 54.2167 68.2552C64.9885 57.4837 66.6964 40.8463 58.745 28.5434L66.0005 21.6091V25.9118C66.0005 29.3201 68.7474 32.0792 72.1509 32.0792C75.552 32.0792 78.3038 29.3201 78.3038 25.9118V6.83631C78.294 5.19217 78.0318 1.10019 71.9745 0.727748ZM45.4934 59.5273C41.8277 63.1978 36.9466 65.2242 31.7518 65.2242C26.557 65.2242 21.6759 63.1978 18.0077 59.5273C10.4238 51.951 10.4238 39.6162 18.0077 32.0351C21.6759 28.3645 26.557 26.3381 31.7518 26.3381C36.9466 26.3381 41.8277 28.3645 45.4934 32.0351C53.0773 39.6162 53.0773 51.9534 45.4934 59.5273Z" fill="#1582E7"/>
</g>
<defs>
<clipPath id="clip0">
<rect width="78.2964" height="78.2964" fill="white"/>
</clipPath>
</defs>
</svg>
