<svg width="85" height="85" viewBox="0 0 85 85" fill="none" xmlns="http://www.w3.org/2000/svg">
<g clip-path="url(#clip0)">
<path d="M70.6794 28.5806C70.6794 12.8278 57.8542 0 42.0988 0C26.3381 0 13.5103 12.8252 13.5103 28.5806C13.5103 42.2833 23.1944 53.7645 36.0828 56.5235V63.1746H29.7242C26.6622 63.1746 24.1799 65.6779 24.1799 68.7347C24.1799 71.7967 26.6622 74.2974 29.7242 74.2974H36.0828V78.6454C36.0828 81.7074 38.5861 84.1897 41.6482 84.1897C44.7102 84.1897 47.2109 81.7127 47.2109 78.6454V74.2974H53.8883C56.9477 74.2974 59.43 71.7967 59.43 68.7347C59.43 65.6779 56.9504 63.1746 53.8883 63.1746H47.2109V56.708C60.4524 54.2968 70.6794 42.5969 70.6794 28.5806ZM24.6015 28.5806C24.6015 18.9334 32.4489 11.0913 42.0909 11.0913C51.7381 11.0913 59.5776 18.9334 59.5776 28.5806C59.5776 38.2252 51.7354 46.0752 42.0909 46.0752C32.4463 46.0726 24.6015 38.2252 24.6015 28.5806Z" fill="#F87172"/>
</g>
<defs>
<clipPath id="clip0">
<rect width="84.1897" height="84.1897" fill="white"/>
</clipPath>
</defs>
</svg>
