<svg width="20" height="20" viewBox="0 0 20 20" fill="none" xmlns="http://www.w3.org/2000/svg">
<rect width="20" height="20" rx="10" fill="url(#paint0_linear)"/>
<path d="M9.99997 12.1958L11.7291 13.2417C12.0458 13.4333 12.4333 13.15 12.35 12.7917L11.8916 10.825L13.4208 9.50001C13.7 9.25835 13.55 8.80001 13.1833 8.77085L11.1708 8.60001L10.3833 6.74168C10.2416 6.40418 9.7583 6.40418 9.61664 6.74168L8.82914 8.59585L6.81664 8.76668C6.44997 8.79585 6.29997 9.25418 6.57914 9.49585L8.1083 10.8208L7.64997 12.7875C7.56664 13.1458 7.95414 13.4292 8.2708 13.2375L9.99997 12.1958Z" fill="white"/>
<defs>
<linearGradient id="paint0_linear" x1="18" y1="0.148136" x2="0.203263" y2="1.20315" gradientUnits="userSpaceOnUse">
<stop stop-color="#FD5F00"/>
<stop offset="1" stop-color="#FFD900"/>
</linearGradient>
</defs>
</svg>
