<svg width="50" height="50" viewBox="0 0 50 50" fill="none" xmlns="http://www.w3.org/2000/svg">
<path d="M25.0003 4.16669C13.5003 4.16669 4.16699 13.5 4.16699 25C4.16699 36.5 13.5003 45.8334 25.0003 45.8334C36.5003 45.8334 45.8337 36.5 45.8337 25C45.8337 13.5 36.5003 4.16669 25.0003 4.16669ZM25.0003 10.4167C28.4587 10.4167 31.2503 13.2084 31.2503 16.6667C31.2503 20.125 28.4587 22.9167 25.0003 22.9167C21.542 22.9167 18.7503 20.125 18.7503 16.6667C18.7503 13.2084 21.542 10.4167 25.0003 10.4167ZM25.0003 40C19.792 40 15.1878 37.3334 12.5003 33.2917C12.5628 29.1459 20.8337 26.875 25.0003 26.875C29.1462 26.875 37.4378 29.1459 37.5003 33.2917C34.8128 37.3334 30.2087 40 25.0003 40Z" fill="#F5F7FA"/>
</svg>
