<svg width="76" height="76" viewBox="0 0 76 76" fill="none" xmlns="http://www.w3.org/2000/svg">
<g clip-path="url(#clip0)">
<path d="M38 75.5C58.7107 75.5 75.5 58.7107 75.5 38C75.5 17.2893 58.7107 0.5 38 0.5C17.2893 0.5 0.5 17.2893 0.5 38C0.5 58.7107 17.2893 75.5 38 75.5Z" fill="url(#paint0_linear)"/>
<path d="M48.9863 18.2246C44.1629 18.2246 40.4634 20.9362 38 24.9714C35.5361 20.9354 31.8364 18.2246 27.0137 18.2246C23.2767 18.2246 19.867 19.802 17.4129 22.666C15.1026 25.3626 13.8301 28.9638 13.8301 32.8064C13.8301 36.9846 15.3972 40.8472 18.7616 44.9625C21.7115 48.5708 25.9464 52.2825 30.8501 56.5807C32.663 58.1697 34.5377 59.8128 36.53 61.606C36.9479 61.982 37.474 62.1699 38 62.1699C38.526 62.1699 39.0521 61.982 39.47 61.6058C41.4623 59.8127 43.3369 58.1696 45.1499 56.5805C50.0536 52.2825 54.2885 48.5706 57.2384 44.9624C60.6028 40.8474 62.1699 36.9846 62.1699 32.8064C62.1699 24.9494 56.7869 18.2246 48.9863 18.2246V18.2246Z" fill="url(#paint1_linear)"/>
</g>
<defs>
<linearGradient id="paint0_linear" x1="38" y1="75.5" x2="38" y2="0.5" gradientUnits="userSpaceOnUse">
<stop stop-color="#FD3A84"/>
<stop offset="1" stop-color="#FFA68D"/>
</linearGradient>
<linearGradient id="paint1_linear" x1="38" y1="62.1699" x2="38" y2="18.2246" gradientUnits="userSpaceOnUse">
<stop stop-color="#FFC2CC"/>
<stop offset="1" stop-color="#FFF2F4"/>
</linearGradient>
<clipPath id="clip0">
<rect width="75" height="75" fill="white" transform="translate(0.5 0.5)"/>
</clipPath>
</defs>
</svg>
