<svg width="54" height="54" viewBox="0 0 54 54" fill="none" xmlns="http://www.w3.org/2000/svg">
<g clip-path="url(#clip0)">
<path d="M26.9996 53.7837H26.9889C22.7759 53.7821 18.5988 52.7875 14.8554 50.9006L3.3165 53.5254C2.61241 53.6852 1.87495 53.4739 1.36244 52.9651C0.84993 52.4563 0.633637 51.7205 0.788544 51.0152L3.2889 39.6501C1.14079 35.683 0.0065918 31.3382 0.000411987 27.0301C0 27.0152 0 27.0004 0 26.986C0.00288392 19.8467 2.82623 13.123 7.9493 8.05394C13.0608 2.99638 19.8261 0.210938 26.9992 0.210938C34.1884 0.213821 40.9429 3.00174 46.0206 8.06053C51.1688 13.1898 54.0025 19.9188 54 27.0074C53.998 32.3645 52.3916 37.5419 49.3549 41.9794C48.6969 42.941 47.3843 43.187 46.4227 42.529C45.4616 41.8711 45.2152 40.5585 45.8731 39.5969C48.4279 35.8635 49.7792 31.5096 49.7813 27.0058C49.7833 21.0472 47.3905 15.3803 43.0432 11.0491C38.7614 6.78296 33.0632 4.43216 26.9984 4.42969C14.4562 4.42969 4.24512 14.5275 4.21875 26.9481C4.21875 26.9617 4.21916 26.9749 4.21916 26.9881C4.21751 30.8327 5.29898 34.7309 7.34615 38.2613C7.61106 38.7182 7.6951 39.2574 7.58139 39.7728L5.62322 48.6738L14.6766 46.6143C15.1764 46.501 15.7004 46.5731 16.1511 46.8174C19.459 48.6133 23.2068 49.5633 26.9897 49.565H26.9992C31.1129 49.565 35.1528 48.4526 38.6819 46.3486C39.6822 45.7516 40.9771 46.0791 41.5736 47.0798C42.1702 48.0806 41.8431 49.375 40.8424 49.972C36.6603 52.4653 31.8734 53.7837 26.9992 53.7837H26.9996ZM21.0423 16.2653C20.5796 15.2402 20.0926 15.2052 19.6526 15.1875H18.469C18.057 15.1875 17.3879 15.3416 16.8223 15.9575C16.2562 16.5734 14.6606 18.0623 14.6606 21.0909C14.6606 24.1194 16.8738 27.0461 17.1823 27.4573C17.4913 27.8676 21.4551 34.2811 27.7321 36.7484C32.9491 38.7989 34.0108 38.391 35.1429 38.288C36.2755 38.1859 38.7973 36.7995 39.3114 35.3621C39.8264 33.9251 39.8264 32.6933 39.6719 32.4358C39.5178 32.1795 39.1058 32.0254 38.4883 31.7177C37.8703 31.4099 34.8434 29.895 34.2774 29.6899C33.7113 29.4847 33.2997 29.3821 32.8877 29.9984C32.4757 30.614 31.2628 32.0374 30.9024 32.4477C30.5423 32.8593 30.1818 32.9104 29.5642 32.6026C28.9466 32.2936 26.9778 31.6324 24.6183 29.5358C22.7821 27.9039 21.5082 25.8234 21.1477 25.207C20.7872 24.5915 21.109 24.2578 21.4188 23.9509C21.6961 23.6753 22.0714 23.2983 22.3804 22.939C22.6886 22.5798 22.7767 22.3231 22.9823 21.9124C23.1883 21.5016 23.0853 21.1424 22.9312 20.8342C22.7767 20.5264 21.591 17.4823 21.0418 16.2653" fill="#F5F7FA"/>
</g>
<defs>
<clipPath id="clip0">
<rect width="54" height="54" fill="white"/>
</clipPath>
</defs>
</svg>
