<svg width="15" height="15" viewBox="0 0 15 15" fill="none" xmlns="http://www.w3.org/2000/svg">
<g clip-path="url(#clip0)">
<path d="M13.7889 0.139438C13.7363 0.136152 10.0789 0.177462 10.0789 0.177462C9.42685 0.185443 8.9053 0.822003 8.91422 1.47452C8.9222 2.12094 9.44985 2.74107 10.0949 2.74107C10.0996 2.74107 10.1047 2.74107 10.1104 2.74107L10.792 2.63028L9.54984 3.8236C8.53914 3.11897 7.3416 2.71056 6.08397 2.71056C4.4583 2.71056 2.93027 3.33116 1.78062 4.48081C-0.5924 6.85383 -0.5924 10.7089 1.78062 13.0819C2.93027 14.2311 4.4583 14.8611 6.08397 14.8611C7.70964 14.8611 9.23719 14.2254 10.3869 13.0767C12.4505 11.0131 12.7777 7.82557 11.2544 5.46851L12.6444 4.14V4.96434C12.6444 5.61733 13.1706 6.14592 13.8227 6.14592C14.4743 6.14592 15.0014 5.61733 15.0014 4.96434V1.30975C14.9996 0.994757 14.9493 0.210793 13.7889 0.139438ZM8.71565 11.4046C8.01337 12.1078 7.07824 12.496 6.08303 12.496C5.08782 12.496 4.1527 12.1078 3.44994 11.4046C1.99703 9.95307 1.99703 7.58991 3.44994 6.13747C4.1527 5.43425 5.08782 5.04602 6.08303 5.04602C7.07824 5.04602 8.01337 5.43425 8.71565 6.13747C10.1686 7.58991 10.1686 9.95354 8.71565 11.4046Z" fill="#1582E7"/>
</g>
<defs>
<clipPath id="clip0">
<rect width="15" height="15.0005" fill="white"/>
</clipPath>
</defs>
</svg>
