<svg width="76" height="75" viewBox="0 0 76 75" fill="none" xmlns="http://www.w3.org/2000/svg">
<g clip-path="url(#clip0)">
<path d="M15.2589 37.5L37.992 14.7669L60.7252 37.5L37.992 60.2331L15.2589 37.5Z" fill="#99FFCC"/>
<path d="M60.7366 37.4999L38 14.7633V60.2365L60.7366 37.4999Z" fill="#80ECC6"/>
<path d="M75.5 37.5C75.5 38.0713 75.2803 38.6426 74.8407 39.0379L39.5379 74.3407C39.1426 74.7803 38.5713 75 38 75L33.6055 62.7686L38 54.0234L54.5234 37.5L62.6248 33.1055L75.5 37.5Z" fill="#36B3B3"/>
<path d="M38 7.62939e-06L42.3945 12.2315L38 20.9766L21.4766 37.5L11.3066 41.8945L0.5 37.5C0.5 36.9287 0.719727 36.3574 1.15933 35.9621L36.4621 0.659334C36.8574 0.219734 37.4287 7.62939e-06 38 7.62939e-06V7.62939e-06Z" fill="#68D9C0"/>
<path d="M38 54.0234V75C37.4287 75 36.8574 74.7803 36.4621 74.3407L1.15933 39.0379C0.719727 38.6426 0.5 38.0713 0.5 37.5H21.4766L38 54.0234Z" fill="#4FC6B9"/>
<path d="M75.5 37.5H54.5234L38 20.9766V7.62939e-06C38.5713 7.62939e-06 39.1426 0.219734 39.5379 0.659334L74.8407 35.9621C75.2803 36.3574 75.5 36.9287 75.5 37.5Z" fill="#4FC6B9"/>
</g>
<defs>
<clipPath id="clip0">
<rect width="75" height="75" fill="white" transform="translate(0.5)"/>
</clipPath>
</defs>
</svg>
