<svg width="24" height="24" viewBox="0 0 24 24" fill="none" xmlns="http://www.w3.org/2000/svg">
<g clip-path="url(#clip0)">
<path d="M15.4286 11H15.1439C14.7695 11 14.4138 10.799 14.1424 10.4342C13.6559 9.77995 12.8892 9 12 9C11.1108 9 10.3441 9.77995 9.85757 10.4342C9.58623 10.7991 9.23057 11 8.85606 11H8.57143C8.25583 11 8 11.4477 8 12C8 12.5523 8.25583 13 8.57143 13H8.85606C9.23054 13 9.58623 13.201 9.85757 13.5658C10.3441 14.2201 11.1108 15 12 15C12.8892 15 13.6559 14.2201 14.1424 13.5658C14.4138 13.2009 14.7694 13 15.1439 13H15.4286C15.7442 13 16 12.5523 16 12C16 11.4477 15.7442 11 15.4286 11ZM12 13C11.44 13 10.9153 12.4611 10.5689 12C10.9153 11.5389 11.44 11 12 11C12.56 11 13.0847 11.5389 13.4311 12C13.0847 12.4611 12.56 13 12 13Z" fill="white"/>
<path d="M23.159 8.81169C21.8374 6.81481 19.6538 4.09897 16.7566 2.50099C15.5787 1.85137 14.203 1.83271 12.9819 2.44966C12.3579 2.76497 11.6421 2.76497 11.0181 2.44966C9.79699 1.83271 8.42116 1.85143 7.24343 2.50099C4.34623 4.09903 2.16263 6.81481 0.841037 8.81169C-0.180002 10.3543 -0.280781 12.5243 0.590261 14.2115C2.31647 17.555 5.37734 22 12 22C18.6227 22 21.6835 17.555 23.4098 14.2115C24.2808 12.5243 24.18 10.3543 23.159 8.81169V8.81169ZM21.831 12.9642C20.2161 16.0923 17.6391 19.6828 12 19.6828C6.36082 19.6828 3.78394 16.0923 2.169 12.9642C1.73507 12.1238 1.78387 11.0449 2.29048 10.2796C3.48376 8.47651 5.44417 6.03051 8.00634 4.61732C8.70242 4.23342 9.51961 4.19548 10.3098 4.59479C11.3997 5.14552 12.6003 5.14552 13.6902 4.59479C14.4517 4.21002 15.2698 4.21807 15.9937 4.61732C18.5559 6.03051 20.5162 8.47651 21.7096 10.2796C22.2161 11.0449 22.2649 12.1238 21.831 12.9642V12.9642Z" fill="white"/>
</g>
<defs>
<clipPath id="clip0">
<rect width="24" height="24" fill="white"/>
</clipPath>
</defs>
</svg>
