<svg width="24" height="24" viewBox="0 0 24 24" fill="none" xmlns="http://www.w3.org/2000/svg">
<g clip-path="url(#clip0_1306:4489)">
<rect x="1" y="3" width="22" height="18" rx="9" fill="#FEFEFE"/>
<path d="M15.4285 11H15.1439C14.7694 11 14.4137 10.799 14.1424 10.4342C13.6558 9.77995 12.8891 9 12 9C11.1108 9 10.3441 9.77995 9.85754 10.4342C9.5862 10.7991 9.23054 11 8.85603 11H8.5714C8.2558 11 7.99997 11.4477 7.99997 12C7.99997 12.5523 8.2558 13 8.5714 13H8.85603C9.23051 13 9.5862 13.201 9.85754 13.5658C10.3441 14.2201 11.1108 15 12 15C12.8891 15 13.6558 14.2201 14.1424 13.5658C14.4137 13.2009 14.7694 13 15.1439 13H15.4285C15.7441 13 16 12.5523 16 12C16 11.4477 15.7441 11 15.4285 11ZM12 13C11.44 13 10.9153 12.4611 10.5689 12C10.9153 11.5389 11.44 11 12 11C12.56 11 13.0847 11.5389 13.431 12C13.0847 12.4611 12.56 13 12 13Z" fill="white"/>
<path d="M23.159 8.81169C21.8373 6.81481 19.6538 4.09897 16.7565 2.50099C15.5787 1.85137 14.2029 1.83271 12.9818 2.44966C12.3579 2.76497 11.6421 2.76497 11.0181 2.44966C9.79696 1.83271 8.42113 1.85143 7.2434 2.50099C4.3462 4.09903 2.1626 6.81481 0.841006 8.81169C-0.180033 10.3543 -0.280811 12.5243 0.590231 14.2115C2.31644 17.555 5.37731 22 12 22C18.6227 22 21.6835 17.555 23.4098 14.2115C24.2807 12.5243 24.1799 10.3543 23.159 8.81169V8.81169ZM21.831 12.9642C20.216 16.0923 17.6391 19.6828 11.9999 19.6828C6.36079 19.6828 3.78391 16.0923 2.16897 12.9642C1.73504 12.1238 1.78384 11.0449 2.29045 10.2796C3.48373 8.47651 5.44414 6.03051 8.00631 4.61732C8.70239 4.23342 9.51958 4.19548 10.3098 4.59479C11.3997 5.14552 12.6003 5.14552 13.6902 4.59479C14.4517 4.21002 15.2698 4.21807 15.9937 4.61732C18.5559 6.03051 20.5162 8.47651 21.7096 10.2796C22.2161 11.0449 22.2649 12.1238 21.831 12.9642V12.9642Z" fill="white"/>
<path d="M12 15.8958L11.3958 15.3458C9.25001 13.4 7.83334 12.1167 7.83334 10.5417C7.83334 9.25833 8.84168 8.25 10.125 8.25C10.85 8.25 11.5458 8.5875 12 9.12083C12.4542 8.5875 13.15 8.25 13.875 8.25C15.1583 8.25 16.1667 9.25833 16.1667 10.5417C16.1667 12.1167 14.75 13.4 12.6042 15.35L12 15.8958Z" fill="#CE1F24"/>
</g>
<defs>
<clipPath id="clip0_1306:4489">
<rect width="24" height="24" fill="white"/>
</clipPath>
</defs>
</svg>
