<svg width="76" height="76" viewBox="0 0 76 76" fill="none" xmlns="http://www.w3.org/2000/svg">
<g clip-path="url(#clip0)">
<path d="M8.91165 68.9076H6.75978L1.38013 12.72H9.98758L8.91165 68.9076Z" fill="#6965A8"/>
<path d="M56.7309 49.6603C51.3513 49.6603 48.243 47.2694 46.4498 48.8235C42.0265 45.3566 37.0055 41.292 32.2236 36.51C16.3237 20.6102 8.91168 2.43884 2.45608 8.77489C-3.99951 15.2305 6.28162 29.0981 22.1815 44.998C32.3431 55.1595 29.7131 68.4294 48.9603 68.4294C49.558 68.4294 50.1558 68.3098 50.7535 68.4294C51.7099 68.5489 52.7858 68.6685 53.6227 68.6685C53.8618 68.6685 54.1009 68.6685 54.34 68.6685C65.9361 68.6685 75.3804 68.788 75.3804 62.3324C75.5 55.8768 68.3271 49.6603 56.7309 49.6603Z" fill="#F15249"/>
<path d="M49.0799 67.9512C49.6777 68.0708 50.2754 68.1903 50.8732 68.3098C51.8296 68.4294 52.9055 68.5489 53.7423 68.5489C53.9814 68.5489 54.2205 68.5489 54.4596 68.5489C66.0558 68.5489 75.5001 68.6685 75.5001 62.2129C75.5001 55.7573 68.3272 49.5408 56.731 49.5408C51.3514 49.5408 48.2431 47.1498 46.4499 48.704C42.0266 45.2371 37.0056 41.1724 32.2237 36.3905C16.3238 20.6102 8.91178 2.43884 2.45618 8.77489" fill="#E24542"/>
<path d="M30.5499 26.3486C31.9845 27.9027 44.298 40.2162 45.613 41.7703C54.9377 52.6492 52.5468 49.6605 47.5258 53.2469C45.0152 55.0401 33.7777 46.9109 22.062 34.2388C10.3463 21.5667 2.69522 9.61186 5.08618 7.46C7.47714 5.18858 18.8342 13.6765 30.5499 26.3486Z" fill="#C93131"/>
</g>
<defs>
<clipPath id="clip0">
<rect width="75" height="75" fill="white" transform="translate(0.5 0.500008)"/>
</clipPath>
</defs>
</svg>
