<svg width="15" height="15" viewBox="0 0 15 15" fill="none" xmlns="http://www.w3.org/2000/svg">
<path d="M12.5929 5.09234C12.5929 2.28559 10.3078 0 7.50069 0C4.69262 0 2.4071 2.28512 2.4071 5.09234C2.4071 7.5338 4.13251 9.57947 6.42883 10.0711V11.2561H5.29593C4.75037 11.2561 4.3081 11.7021 4.3081 12.2468C4.3081 12.7923 4.75037 13.2379 5.29593 13.2379H6.42883V14.0126C6.42883 14.5582 6.87485 15.0005 7.42041 15.0005C7.96596 15.0005 8.41152 14.5591 8.41152 14.0126V13.2379H9.60123C10.1463 13.2379 10.5886 12.7923 10.5886 12.2468C10.5886 11.7021 10.1468 11.2561 9.60123 11.2561H8.41152V10.1039C10.7707 9.67431 12.5929 7.58968 12.5929 5.09234ZM4.38322 5.09234C4.38322 3.37345 5.78139 1.97618 7.49928 1.97618C9.21812 1.97618 10.6149 3.37345 10.6149 5.09234C10.6149 6.81076 9.21765 8.20943 7.49928 8.20943C5.78092 8.20897 4.38322 6.81076 4.38322 5.09234Z" fill="#FE297C"/>
</svg>
