<svg width="260" height="84" viewBox="0 0 260 84" fill="none" xmlns="http://www.w3.org/2000/svg">
<path d="M28.9775 57.54C23.2719 57.54 18.6297 52.761 18.6297 46.8866V24.5135C18.6297 18.6391 23.2719 13.86 28.9775 13.86H82.8008C88.5066 13.86 93.1485 18.6391 93.1485 24.5135V46.8866C93.1485 52.761 88.5066 57.54 82.8008 57.54H28.9775Z" fill="#480B0E"/>
<path d="M82.8008 13.1601H28.9775C22.8871 13.1601 17.9498 18.2432 17.9498 24.5135V46.8866C17.9498 53.1569 22.8871 58.2401 28.9775 58.2401H82.8008C88.8912 58.2401 93.8285 53.1569 93.8285 46.8866V24.5135C93.8285 18.2432 88.8912 13.1601 82.8008 13.1601ZM82.8008 14.5601C88.1316 14.5601 92.4687 19.0252 92.4687 24.5135V46.8866C92.4687 52.3749 88.1316 56.8401 82.8008 56.8401H28.9775C23.6467 56.8401 19.3097 52.3749 19.3097 46.8866V24.5135C19.3097 19.0252 23.6467 14.5601 28.9775 14.5601H82.8008Z" fill="#480B0E"/>
<path d="M25.7354 46.3225C24.4368 45.7726 23.4362 44.9847 22.7332 43.9591C22.0304 42.9334 21.679 41.7168 21.679 40.3095V31.9401C21.679 30.523 22.0304 29.3013 22.7332 28.2757C23.4362 27.2501 24.4368 26.4621 25.7354 25.9119C27.0338 25.362 28.5671 25.0871 30.3341 25.0871C32.0341 25.0871 33.4971 25.3399 34.722 25.8453C35.9469 26.3507 36.914 27.1064 37.6236 28.1122C38.3332 29.1182 38.7615 30.3446 38.9089 31.7914H34.471C34.3771 31.0284 34.1495 30.3844 33.7881 29.8588C33.4266 29.3338 32.9512 28.9348 32.3624 28.6621C31.7731 28.3899 31.0972 28.2533 30.3341 28.2533C29.4635 28.2533 28.7143 28.4023 28.0849 28.6993C27.4556 28.9967 26.9704 29.4203 26.6291 29.9705C26.2878 30.5205 26.117 31.1771 26.117 31.9401V40.3095C26.117 41.0627 26.2878 41.7143 26.6291 42.2642C26.9704 42.8144 27.4556 43.2381 28.0849 43.5351C28.7143 43.8325 29.4635 43.9812 30.3341 43.9812C31.0972 43.9812 31.7731 43.8499 32.3624 43.5872C32.9512 43.3249 33.4266 42.9284 33.7881 42.3981C34.1495 41.868 34.3771 41.2162 34.471 40.4431H38.9089C38.7615 41.8901 38.3332 43.1168 37.6236 44.1226C36.914 45.1283 35.9502 45.8841 34.7321 46.3895C33.5136 46.8949 32.0475 47.1477 30.3341 47.1477C28.5671 47.1477 27.0338 46.8725 25.7354 46.3225Z" fill="white"/>
<path d="M47.17 42.6433C47.17 43.0297 47.2937 43.3321 47.5415 43.5502C47.789 43.7683 48.1404 43.8773 48.5956 43.8773H49.9411V46.9693H47.8127C46.2328 46.9693 45.0076 46.6126 44.1376 45.8989C43.2673 45.1854 42.8324 44.1797 42.8324 42.8813V25.3099H47.17V42.6433Z" fill="white"/>
<path d="M63.3029 31.4942H67.6204V46.9247H63.3029V31.4942ZM57.1581 41.7959C57.1581 42.5491 57.4257 43.1265 57.9612 43.528C58.4965 43.9293 59.2599 44.1297 60.2507 44.1297C61.2276 44.1297 61.9806 43.9393 62.5099 43.5577C63.0386 43.1763 63.3029 42.6186 63.3029 41.8853L63.5841 44.4422C63.1825 45.2747 62.5765 45.9338 61.7669 46.4193C60.9567 46.9051 59.9561 47.1476 58.7646 47.1476C56.85 47.1476 55.3841 46.692 54.3667 45.7801C53.3492 44.8684 52.8407 43.5602 52.8407 41.8556V31.4942H57.1581V41.7959Z" fill="white"/>
<path d="M78.1309 46.4564C77.3006 45.9955 76.6916 45.3439 76.3035 44.5017L76.5845 41.6622C76.5845 42.2074 76.705 42.6683 76.9462 43.0446C77.1869 43.4215 77.5315 43.7138 77.9802 43.9218C78.4287 44.1299 78.9808 44.234 79.637 44.234C80.6139 44.234 81.3773 43.9887 81.9262 43.4982C82.475 43.0076 82.7497 42.3115 82.7497 41.4097V36.9795C82.7497 36.0877 82.475 35.3964 81.9262 34.9058C81.3773 34.4153 80.6139 34.17 79.637 34.17C78.9808 34.17 78.4287 34.2691 77.9802 34.4673C77.5315 34.6656 77.1869 34.9531 76.9462 35.3295C76.705 35.7061 76.5845 36.1619 76.5845 36.6973L76.1629 34.0807C76.7118 33.1791 77.4281 32.4827 78.3117 31.9921C79.1951 31.5016 80.1723 31.2563 81.2435 31.2563C82.4614 31.2563 83.5093 31.4744 84.3861 31.9104C85.2629 32.3466 85.929 32.9833 86.3845 33.8205C86.8395 34.6583 87.0671 35.6713 87.0671 36.8605V41.5284C87.0671 42.7175 86.8327 43.7337 86.3641 44.5759C85.8955 45.4181 85.2129 46.0577 84.3159 46.4936C83.4187 46.9296 82.348 47.1477 81.1029 47.1477C79.9514 47.1477 78.9606 46.9173 78.1309 46.4564ZM72.2469 25.3099H76.5845V46.9245H72.2469V25.3099Z" fill="white"/>
<path d="M40.962 70.2653C40.649 70.1435 40.411 69.9665 40.2484 69.7338C40.0855 69.5009 40.0042 69.2197 40.0042 68.8893V67.6878C40.0042 67.3527 40.0855 67.0671 40.2484 66.8313C40.411 66.5961 40.649 66.4169 40.962 66.2937C41.2751 66.1708 41.6515 66.1089 42.0915 66.1089C42.4527 66.1089 42.7633 66.1495 43.0225 66.231C43.2819 66.3119 43.493 66.4343 43.6556 66.5981C43.8185 66.7619 43.9268 66.9654 43.9803 67.209L42.9178 67.489C42.8642 67.3023 42.7668 67.1628 42.6254 67.071C42.4842 66.9792 42.3096 66.9332 42.1021 66.9332C41.8019 66.9332 41.5702 66.9993 41.4075 67.132C41.2446 67.2645 41.1633 67.4526 41.1633 67.696V68.8812C41.1633 69.1167 41.2438 69.3001 41.4045 69.4311C41.5658 69.5625 41.7981 69.6283 42.1021 69.6283C42.3135 69.6283 42.4894 69.5823 42.6308 69.4899C42.772 69.3978 42.8677 69.2615 42.9178 69.0803L43.9912 69.3723C43.9338 69.6134 43.8237 69.8136 43.661 69.9732C43.4984 70.1328 43.2855 70.2518 43.0225 70.3302C42.7595 70.4086 42.4492 70.4478 42.0915 70.4478C41.6515 70.4478 41.2751 70.3873 40.962 70.2653Z" fill="#321215"/>
<path d="M52.6311 69.4272C52.7761 69.3043 52.8484 69.1315 52.8484 68.9095V67.6391C52.8484 67.4173 52.7761 67.2448 52.6311 67.1219C52.4862 66.9987 52.2797 66.9368 52.0113 66.9368C51.7502 66.9368 51.5462 66.9987 51.3996 67.1219C51.2531 67.2448 51.1796 67.4173 51.1796 67.6391V68.9095C51.1796 69.1315 51.2531 69.3043 51.3996 69.4272C51.5462 69.5504 51.7502 69.6117 52.0113 69.6117C52.2797 69.6117 52.4862 69.5504 52.6311 69.4272V69.4272ZM50.9408 70.2694C50.6422 70.1504 50.4151 69.976 50.2593 69.7458C50.1037 69.5157 50.0259 69.2399 50.0259 68.9179V67.6147C50.0259 67.2983 50.1037 67.0264 50.2593 66.7991C50.4151 66.5717 50.6422 66.3998 50.9408 66.2833C51.2395 66.1671 51.5982 66.1089 52.0167 66.1089C52.4353 66.1089 52.7929 66.1671 53.0899 66.2833C53.3866 66.3998 53.6129 66.5717 53.7688 66.7991C53.9243 67.0264 54.0021 67.2983 54.0021 67.6147V68.9299C54.0021 69.2491 53.9243 69.5227 53.7688 69.7497C53.6129 69.9771 53.3866 70.1504 53.0899 70.2694C52.7929 70.3884 52.4353 70.4481 52.0167 70.4481C51.5982 70.4481 51.2395 70.3884 50.9408 70.2694Z" fill="#321215"/>
<path d="M66.1219 67.6676C66.1219 67.4296 66.0468 67.2476 65.8964 67.1219C65.7463 66.9961 65.5333 66.9331 65.2578 66.9331C65.0003 66.9331 64.8009 66.9945 64.6598 67.1177C64.5183 67.2409 64.4476 67.4215 64.4476 67.6595L64.2651 66.9371C64.4117 66.6666 64.6133 66.4605 64.8689 66.3202C65.1246 66.1797 65.4117 66.1091 65.7302 66.1091C66.0593 66.1091 66.3392 66.1654 66.5698 66.2774C66.8007 66.3899 66.9777 66.554 67.1012 66.7707C67.2247 66.9872 67.2861 67.2481 67.2861 67.5539V70.3872H66.1219V67.6676ZM63.2939 67.6676C63.2939 67.4296 63.2224 67.2476 63.0794 67.1219C62.9363 66.9961 62.7307 66.9331 62.4623 66.9331C62.1941 66.9331 61.9863 66.9911 61.8397 67.1076C61.6932 67.2241 61.6197 67.394 61.6197 67.6189L61.5071 66.8965C61.6573 66.6394 61.855 66.4437 62.1 66.3099C62.3451 66.176 62.6233 66.1091 62.9344 66.1091C63.2564 66.1091 63.5311 66.1645 63.7582 66.2751C63.9853 66.3863 64.1569 66.5493 64.2733 66.7646C64.3894 66.9796 64.4476 67.2389 64.4476 67.5419V70.3872H63.2939V67.6676ZM60.4609 66.1741H61.62V70.3872H60.4609V66.1741Z" fill="#321215"/>
<path d="M76.6426 66.1742H77.7963V70.3873H76.6426V66.1742ZM75.0005 68.9867C75.0005 69.1923 75.072 69.3502 75.2153 69.4597C75.3581 69.5691 75.5621 69.624 75.827 69.624C76.0881 69.624 76.2893 69.5719 76.4305 69.4681C76.5719 69.3636 76.6426 69.2116 76.6426 69.0114L76.7177 69.7091C76.6103 69.9365 76.4484 70.1165 76.232 70.2493C76.0155 70.3817 75.7484 70.4481 75.4299 70.4481C74.9184 70.4481 74.5264 70.3235 74.2548 70.0745C73.9828 69.8256 73.8468 69.4686 73.8468 69.003V66.1742H75.0005V68.9867Z" fill="#321215"/>
<path d="M87.2171 67.6474C87.2171 67.4175 87.1428 67.24 86.9943 67.116C86.8459 66.9911 86.634 66.9289 86.3585 66.9289C86.0865 66.9289 85.8793 66.988 85.7362 67.1053C85.5929 67.2229 85.5214 67.3943 85.5214 67.6189L85.4088 66.9004C85.5589 66.6433 85.755 66.4476 85.9962 66.3118C86.2377 66.1769 86.516 66.1091 86.8309 66.1091C87.3207 66.1091 87.7009 66.2329 87.971 66.4804C88.241 66.7282 88.3762 67.0807 88.3762 67.5377V70.3872H87.2171V67.6474ZM84.3622 66.1741H85.5214V70.3872H84.3622V66.1741Z" fill="#321215"/>
<path d="M94.9152 66.1741H96.0689V70.3873H94.9152V66.1741ZM94.9152 64.5017H96.0689V65.3784H94.9152V64.5017Z" fill="#321215"/>
<path d="M105.275 64.4854H106.434V70.3872H105.275V64.4854ZM103.19 70.2794C102.956 70.1618 102.778 69.9913 102.656 69.7682C102.535 69.545 102.474 69.2765 102.474 68.9626V67.6189C102.474 67.2994 102.534 67.0256 102.654 66.7971C102.774 66.5683 102.95 66.3958 103.182 66.2796C103.415 66.1632 103.692 66.1052 104.014 66.1052C104.304 66.1052 104.568 66.1707 104.806 66.3018C105.043 66.4334 105.237 66.6165 105.388 66.8517L105.275 67.5867C105.275 67.4458 105.243 67.324 105.178 67.2213C105.114 67.1185 105.021 67.0415 104.899 66.9897C104.778 66.9385 104.633 66.9127 104.465 66.9127C104.2 66.9127 103.993 66.9774 103.845 67.1076C103.696 67.2372 103.622 67.4215 103.622 67.6595V68.9298C103.622 69.1628 103.696 69.3406 103.845 69.4635C103.993 69.5867 104.2 69.6483 104.465 69.6483C104.633 69.6483 104.778 69.622 104.899 69.5691C105.021 69.5164 105.114 69.4394 105.178 69.3378C105.243 69.2364 105.275 69.1152 105.275 68.9746L105.35 69.7256C105.243 69.9474 105.076 70.1246 104.851 70.257C104.626 70.3898 104.354 70.4561 104.036 70.4561C103.706 70.4561 103.425 70.397 103.19 70.2794Z" fill="#321215"/>
<path d="M115.71 67.5298C115.71 67.3242 115.636 67.1644 115.487 67.0507C115.339 66.937 115.127 66.8802 114.851 66.8802C114.658 66.8802 114.485 66.914 114.331 66.9818C114.177 67.0493 114.057 67.1442 113.971 67.2657L113.016 67.0104C113.131 66.7231 113.347 66.5013 113.666 66.3445C113.984 66.1877 114.381 66.109 114.857 66.109C115.268 66.109 115.619 66.1631 115.911 66.2714C116.203 66.3798 116.426 66.5386 116.582 66.7483C116.737 66.958 116.815 67.2117 116.815 67.5093V70.3872H115.71V67.5298ZM113.242 70.1374C112.963 69.9305 112.823 69.6172 112.823 69.1977C112.823 68.757 112.976 68.426 113.282 68.2054C113.588 67.9848 114.048 67.8744 114.664 67.8744H115.758L115.833 68.5929H114.674C114.42 68.5929 114.23 68.6439 114.103 68.7453C113.976 68.8466 113.912 68.9975 113.912 69.1977C113.912 69.3739 113.98 69.5035 114.116 69.5878C114.252 69.6712 114.46 69.7135 114.739 69.7135C115.064 69.7135 115.307 69.6718 115.468 69.5892C115.629 69.5071 115.71 69.382 115.71 69.2143L115.823 69.709C115.783 69.8714 115.704 70.0078 115.586 70.117C115.468 70.2267 115.317 70.3093 115.133 70.3648C114.949 70.4199 114.737 70.4479 114.497 70.4479C113.939 70.4479 113.521 70.3446 113.242 70.1374Z" fill="#321215"/>
<path d="M126.048 64.4854H127.207V70.3872H126.048V64.4854ZM123.964 70.2794C123.729 70.1618 123.551 69.9913 123.43 69.7682C123.308 69.545 123.247 69.2765 123.247 68.9626V67.6189C123.247 67.2994 123.307 67.0256 123.427 66.7971C123.547 66.5683 123.723 66.3958 123.956 66.2796C124.188 66.1632 124.465 66.1052 124.787 66.1052C125.077 66.1052 125.341 66.1707 125.579 66.3018C125.816 66.4334 126.011 66.6165 126.161 66.8517L126.048 67.5867C126.048 67.4458 126.016 67.324 125.952 67.2213C125.887 67.1185 125.794 67.0415 125.672 66.9897C125.551 66.9385 125.406 66.9127 125.238 66.9127C124.973 66.9127 124.767 66.9774 124.618 67.1076C124.47 67.2372 124.396 67.4215 124.396 67.6595V68.9298C124.396 69.1628 124.47 69.3406 124.618 69.4635C124.767 69.5867 124.973 69.6483 125.238 69.6483C125.406 69.6483 125.551 69.622 125.672 69.5691C125.794 69.5164 125.887 69.4394 125.952 69.3378C126.016 69.2364 126.048 69.1152 126.048 68.9746L126.123 69.7256C126.016 69.9474 125.85 70.1246 125.624 70.257C125.399 70.3898 125.127 70.4561 124.809 70.4561C124.479 70.4561 124.198 70.397 123.964 70.2794" fill="#321215"/>
<path d="M143.13 70.2593C142.908 70.1335 142.745 69.9555 142.641 69.7256L142.716 68.9503C142.716 69.0989 142.749 69.2252 142.813 69.328C142.877 69.4307 142.97 69.5103 143.092 69.5671C143.214 69.6239 143.36 69.6525 143.532 69.6525C143.793 69.6525 143.997 69.5856 144.144 69.4515C144.291 69.3176 144.364 69.1275 144.364 68.8811V67.6718C144.364 67.4282 144.291 67.2394 144.144 67.1053C143.997 66.9715 143.793 66.9048 143.532 66.9048C143.36 66.9048 143.214 66.9314 143.092 66.9858C142.97 67.0398 142.877 67.1185 142.813 67.2212C142.749 67.3243 142.716 67.4483 142.716 67.5945L142.604 66.8802C142.747 66.6341 142.937 66.4437 143.175 66.3101C143.413 66.176 143.677 66.1091 143.967 66.1091C144.289 66.1091 144.567 66.1687 144.801 66.2874C145.036 66.4067 145.213 66.5803 145.335 66.8091C145.457 67.0378 145.517 67.3142 145.517 67.6393V68.9136C145.517 69.2359 145.455 69.5122 145.33 69.7438C145.204 69.9751 145.023 70.1503 144.785 70.2693C144.547 70.3883 144.26 70.448 143.924 70.448C143.616 70.448 143.351 70.385 143.13 70.2593ZM141.558 66.174H142.717V72.1H141.558V66.174Z" fill="#321215"/>
<path d="M154.6 66.9999C154.511 66.9797 154.409 66.9697 154.295 66.9697C153.937 66.9697 153.658 67.043 153.457 67.1909C153.257 67.3384 153.155 67.5406 153.152 67.7976L153.039 66.9086C153.214 66.6569 153.435 66.4606 153.701 66.3201C153.968 66.1795 154.266 66.1089 154.595 66.1089C154.724 66.1089 154.84 66.1232 154.944 66.1518C155.048 66.1801 155.138 66.2229 155.218 66.2797L154.826 67.0912C154.765 67.0509 154.69 67.0201 154.6 66.9999ZM151.977 66.1742H153.152V70.3873H151.977V66.1742Z" fill="#321215"/>
<path d="M161.977 70.2551C161.662 70.1266 161.422 69.9404 161.257 69.6971C161.093 69.4538 161.011 69.1558 161.011 68.8039V67.8258C161.011 67.4632 161.091 67.1536 161.252 66.8965C161.413 66.6395 161.645 66.4438 161.947 66.3099C162.249 66.1761 162.617 66.1089 163.05 66.1089C163.468 66.1089 163.825 66.18 164.12 66.3222C164.416 66.4642 164.64 66.6725 164.794 66.9475C164.948 67.2219 165.024 67.5514 165.024 67.9356V68.6258H161.837V67.9437H163.93V67.7043C163.926 67.4498 163.846 67.2513 163.688 67.1096C163.531 66.9676 163.318 66.8965 163.05 66.8965C162.749 66.8965 162.517 66.9735 162.355 67.1278C162.192 67.2821 162.111 67.4996 162.111 67.7813V68.8324C162.111 69.0895 162.197 69.2886 162.371 69.4291C162.544 69.57 162.79 69.6402 163.109 69.6402C163.32 69.6402 163.495 69.6024 163.635 69.5263C163.774 69.451 163.874 69.3412 163.935 69.1978L164.96 69.482C164.846 69.7984 164.634 70.039 164.324 70.2025C164.015 70.366 163.613 70.4478 163.12 70.4478C162.672 70.4478 162.291 70.3836 161.977 70.2551Z" fill="#321215"/>
<path d="M177.123 67.6676C177.123 67.4296 177.048 67.2476 176.897 67.1219C176.747 66.9961 176.534 66.9331 176.259 66.9331C176.001 66.9331 175.802 66.9945 175.66 67.1177C175.519 67.2409 175.448 67.4215 175.448 67.6595L175.266 66.9371C175.413 66.6666 175.614 66.4605 175.87 66.3202C176.125 66.1797 176.413 66.1091 176.731 66.1091C177.06 66.1091 177.34 66.1654 177.571 66.2774C177.801 66.3899 177.978 66.554 178.102 66.7707C178.225 66.9872 178.287 67.2481 178.287 67.5539V70.3872H177.123V67.6676ZM174.295 67.6676C174.295 67.4296 174.223 67.2476 174.08 67.1219C173.937 66.9961 173.731 66.9331 173.463 66.9331C173.195 66.9331 172.987 66.9911 172.841 67.1076C172.694 67.2241 172.621 67.394 172.621 67.6189L172.508 66.8965C172.658 66.6394 172.856 66.4437 173.101 66.3099C173.346 66.176 173.624 66.1091 173.935 66.1091C174.257 66.1091 174.532 66.1645 174.759 66.2751C174.986 66.3863 175.158 66.5493 175.274 66.7646C175.39 66.9796 175.448 67.2389 175.448 67.5419V70.3872H174.295V67.6676ZM171.462 66.1741H172.621V70.3872H171.462V66.1741Z" fill="#321215"/>
<path d="M184.821 66.1741H185.974V70.3873H184.821V66.1741ZM184.821 64.5017H185.974V65.3784H184.821V64.5017Z" fill="#321215"/>
<path d="M195.309 66.1742H196.463V70.3873H195.309V66.1742ZM193.667 68.9867C193.667 69.1923 193.739 69.3502 193.882 69.4597C194.025 69.5691 194.229 69.624 194.494 69.624C194.755 69.624 194.956 69.5719 195.097 69.4681C195.239 69.3636 195.309 69.2116 195.309 69.0114L195.385 69.7091C195.277 69.9365 195.115 70.1165 194.899 70.2493C194.682 70.3817 194.415 70.4481 194.097 70.4481C193.585 70.4481 193.193 70.3235 192.921 70.0745C192.649 69.8256 192.514 69.4686 192.514 69.003V66.1742H193.667V68.9867Z" fill="#321215"/>
<path d="M208.69 67.6676C208.69 67.4296 208.615 67.2476 208.465 67.1219C208.314 66.9961 208.102 66.9331 207.826 66.9331C207.569 66.9331 207.369 66.9945 207.228 67.1177C207.087 67.2409 207.016 67.4215 207.016 67.6595L206.833 66.9371C206.98 66.6666 207.181 66.4605 207.437 66.3202C207.693 66.1797 207.98 66.1091 208.299 66.1091C208.628 66.1091 208.907 66.1654 209.138 66.2774C209.369 66.3899 209.546 66.554 209.67 66.7707C209.793 66.9872 209.854 67.2481 209.854 67.5539V70.3872H208.69V67.6676ZM205.862 67.6676C205.862 67.4296 205.791 67.2476 205.647 67.1219C205.504 66.9961 205.299 66.9331 205.031 66.9331C204.762 66.9331 204.555 66.9911 204.408 67.1076C204.261 67.2241 204.188 67.394 204.188 67.6189L204.075 66.8965C204.226 66.6394 204.423 66.4437 204.668 66.3099C204.913 66.176 205.192 66.1091 205.503 66.1091C205.825 66.1091 206.099 66.1645 206.327 66.2751C206.554 66.3863 206.725 66.5493 206.841 66.7646C206.958 66.9796 207.016 67.2389 207.016 67.5419V70.3872H205.862V67.6676ZM203.029 66.1741H204.188V70.3872H203.029V66.1741Z" fill="#321215"/>
<path d="M223.595 47.5843L216.369 56.0184C215.809 56.6714 214.909 56.8853 214.128 56.5504L204.044 52.2267C203.455 51.9744 203.022 51.4458 202.878 50.8062L199.841 37.2481C199.698 36.6088 199.863 35.9377 200.284 35.4457L207.511 27.0116C208.07 26.3586 208.971 26.145 209.751 26.4793L219.836 30.8033C220.424 31.0556 220.858 31.5842 221.001 32.2238L224.038 45.7819C224.182 46.4212 224.017 47.0923 223.595 47.5843Z" fill="white"/>
<path d="M239.765 43.0138L230.659 49.2268C229.954 49.7078 229.03 49.6734 228.361 49.1416L219.713 42.2702C219.209 41.8692 218.923 41.2426 218.946 40.5871L219.433 26.6817C219.455 26.0262 219.784 25.4223 220.315 25.0597L229.421 18.8467C230.126 18.366 231.05 18.4001 231.719 18.9321L240.367 25.8036C240.871 26.2043 241.157 26.8312 241.134 27.4867L240.648 41.3921C240.624 42.0476 240.296 42.6515 239.765 43.0138Z" fill="white"/>
<path d="M224.407 56.8187C224.939 56.03 230.225 49.6356 231.076 49.1498C231.098 49.1378 231.11 49.114 231.108 49.0882C231.072 48.4414 230.898 47.8055 230.585 47.2262C230.139 46.3982 229.424 45.8133 228.946 45.0268C228.755 44.7126 228.605 44.249 228.32 44.0104C228.268 43.9673 228.21 43.9432 228.151 43.9239C228.127 43.9155 228.1 43.9127 228.075 43.9068C227.858 43.8684 227.613 43.9354 227.417 43.9757C227.37 43.9886 227.324 44.0014 227.277 44.0146C227.164 44.0566 227.046 44.1048 226.915 44.1619C226.566 44.3142 226.069 44.6113 225.618 44.7334C225.172 44.8552 224.772 44.8067 224.395 44.6698C223.883 44.485 223.574 44.028 223.497 43.6002C223.432 43.2348 223.587 42.9131 223.397 42.5524C223.304 42.378 223.17 42.1865 223.046 42.0644C222.963 41.9832 222.877 41.8729 222.761 41.8116C222.636 41.7458 222.505 41.6956 222.433 41.5604C222.369 41.4406 222.35 41.2919 222.375 41.1566C222.392 41.0628 222.484 40.805 222.462 40.6865C222.445 40.5969 222.35 40.6081 222.291 40.5874C222.153 40.5364 222.059 40.4743 222.024 40.4286C221.877 40.2436 221.864 40.0641 221.904 39.8266C221.915 39.7594 221.989 39.6634 222.016 39.5766C222.081 39.3655 222.102 39.139 221.974 39.0001C221.817 38.8301 221.514 38.9866 221.322 38.9914C221.094 38.9964 220.866 38.9231 220.689 38.7836C220.657 38.759 220.526 38.572 220.564 38.2211C220.59 37.9733 220.836 37.3369 221.023 36.5739C221.236 35.705 221.388 34.708 221.339 34.5237C221.21 34.05 220.909 34.2068 220.655 33.9175C220.509 33.7512 220.53 32.5329 220.506 31.3155C220.496 30.7317 220.454 30.1501 220.445 29.6853C220.444 29.6727 220.44 29.6612 220.434 29.6514C219.733 28.6168 220.025 26.9808 220.611 25.9288C221.497 24.3334 223.282 23.2985 224.869 22.568C225.645 22.2118 226.476 21.9041 227.306 21.7171C229.726 21.1722 232.653 21.5272 234.531 23.1286C236.241 24.5899 237.7 26.8198 238.091 29.0996C238.297 30.2988 238.278 31.7892 237.948 32.989C237.834 33.4046 237.689 33.7994 237.563 34.1925C237.404 34.6842 237.201 35.859 237.312 36.9533C237.333 37.1624 237.51 38.3939 237.996 39.4783C238.506 40.6168 239.214 41.9023 239.849 42.9657C239.87 43.0013 239.917 43.0063 239.946 42.9769C240.54 42.3595 241.093 41.6993 241.587 40.9847C244.86 36.2499 243.926 29.1852 241.334 24.3782C239.844 21.616 237.947 19.7988 235.686 18.676C231.653 16.6734 226.322 16.508 222.25 18.4492C219.569 19.7277 217.442 21.8582 216.601 24.465C216.583 24.5196 216.515 24.5269 216.489 24.4759C216.234 23.9686 215.138 22.5674 213.839 21.6362C212.177 20.445 210.176 19.8906 209.01 19.7593C205.905 19.4096 202.712 20.2124 200.094 22.0128C198.328 23.2263 196.884 24.9102 195.804 26.8128C194.118 29.7819 193.303 33.3248 193.503 36.6621C193.742 40.6801 195.446 44.3979 198.068 47.4107C200.071 49.7132 202.646 51.5547 205.127 52.7999C205.232 52.859 205.338 52.9175 205.444 52.974C205.444 52.9673 205.444 52.9606 205.444 52.9539C206.386 53.4092 207.312 53.7796 208.181 54.0523C208.236 54.0694 208.281 54.0061 208.252 53.9549C207.7 53.0032 206.206 49.8476 206.264 46.8622C206.305 44.7773 206.965 42.7342 207.695 41.113C207.719 41.0589 207.792 41.0665 207.81 41.1236C208.026 41.8421 208.382 42.4791 208.858 42.9139C209.725 43.7058 210.967 43.7021 211.712 43.0237C212.205 42.5737 212.562 41.7679 212.083 40.9629C212.049 40.9055 211.961 40.9326 211.967 41.0004C212.051 41.9681 210.719 42.1812 210.177 41.221C209.738 40.4449 209.722 39.5052 209.917 38.6005C210.213 37.2352 210.932 35.9915 211.858 35.0022C212.533 34.2821 213.351 33.7851 214.086 33.145C214.573 32.7211 215.009 32.2305 215.179 31.6812C215.194 31.6344 215.248 31.6173 215.281 31.652C216.133 32.5438 217.381 34.6486 217.477 36.4529C217.48 36.5008 217.483 36.5481 217.483 36.5954C217.493 37.0689 217.169 37.5231 217.191 38.0671C217.193 38.0976 217.214 38.1242 217.242 38.1304C217.651 38.2206 218.098 38.1382 218.728 37.8812C218.792 37.8552 218.845 37.9411 218.795 37.9896C218.4 38.3732 217.937 38.6134 217.461 38.7724C217.425 38.7842 217.407 38.8245 217.422 38.8604C217.639 39.3627 217.991 40.0081 218.398 40.5745C218.878 41.2418 219.35 41.4966 219.276 41.8866C219.216 42.2047 218.795 42.4894 218.315 42.574C218.279 42.5802 218.255 42.616 218.264 42.6532C218.28 42.716 218.314 42.8086 218.37 42.8999C218.463 43.0503 218.611 43.199 218.668 43.2435C218.752 43.3093 218.826 43.381 218.86 43.4722C218.934 43.673 218.811 43.8883 218.692 44.0404C218.6 44.1554 218.494 44.2683 218.413 44.3428C218.383 44.3705 218.385 44.4192 218.417 44.4438C218.472 44.4856 218.551 44.5533 218.613 44.6401C218.705 44.7709 218.76 44.9842 218.687 45.1396C218.65 45.2183 218.595 45.2746 218.531 45.3188C218.413 45.4017 218.265 45.4429 218.154 45.5126C218.1 45.5459 218.045 45.5868 218.048 45.6411C218.055 45.7512 218.156 46.067 218.203 46.3641C218.259 46.709 218.254 47.0422 218.14 47.2192C218 47.4345 217.808 47.6087 217.589 47.7375C217.333 47.8884 217.042 47.9598 216.749 47.9727C216.043 48.0032 215.197 47.8248 214.471 47.7008C214.08 47.6336 213.25 47.5846 212.886 47.8092C212.65 47.955 211.777 49.6328 211.712 51.5785C211.705 51.781 211.703 51.9831 211.704 52.1836C211.723 54.229 212.604 56.1411 214.029 57.5243C215.172 58.634 220.491 63.019 220.491 63.019L224.407 56.8187Z" fill="#480B0E"/>
<path d="M104.268 54.2278H109.487C110.833 54.2278 111.875 53.9732 112.613 53.4636C113.351 52.954 113.72 52.233 113.72 51.3001V46.2676C113.72 45.335 113.351 44.614 112.613 44.1044C111.875 43.5948 110.833 43.34 109.487 43.34H104.268V40.2359H109.398C111.212 40.2359 112.76 40.4753 114.041 40.9532C115.322 41.4315 116.297 42.129 116.965 43.046C117.633 43.9632 117.967 45.0684 117.967 46.3617V51.206C117.967 52.4369 117.645 53.5104 117.002 54.4277C116.359 55.3447 115.395 56.0581 114.109 56.5674C112.822 57.0773 111.247 57.3318 109.383 57.3318H104.268V54.2278ZM102.204 40.2359H106.302V57.3318H102.204V40.2359Z" fill="#321215"/>
<path d="M131.126 49.5952C131.126 49.0307 130.886 48.5958 130.408 48.2901C129.93 47.9843 129.251 47.8314 128.374 47.8314C127.796 47.8314 127.222 47.9062 126.654 48.0549C126.086 48.2038 125.582 48.4116 125.144 48.6782L122.601 46.7145C123.22 46.1582 124.037 45.725 125.054 45.4153C126.071 45.1056 127.198 44.9508 128.434 44.9508C129.79 44.9508 130.946 45.1292 131.903 45.4859C132.861 45.8426 133.59 46.36 134.094 47.0379C134.598 47.7161 134.849 48.5331 134.849 49.4893V57.3318H131.126V49.5952ZM123.073 56.5733C122.25 55.9503 121.839 55.0036 121.839 53.7338C121.839 52.527 122.3 51.6215 123.222 51.0178C124.144 50.4144 125.527 50.1126 127.372 50.1126H131.26L131.47 52.5699H127.387C126.769 52.5699 126.305 52.6659 125.996 52.858C125.687 53.0501 125.533 53.3421 125.533 53.7338C125.533 54.1337 125.727 54.4296 126.116 54.6217C126.505 54.8138 127.093 54.9096 127.881 54.9096C128.977 54.9096 129.792 54.8118 130.326 54.6158C130.859 54.4198 131.126 54.1144 131.126 53.6986L131.44 55.474C131.38 55.9131 131.123 56.2855 130.67 56.591C130.216 56.8967 129.648 57.126 128.965 57.2789C128.282 57.4318 127.562 57.5082 126.804 57.5082C125.139 57.5082 123.895 57.1966 123.073 56.5733" fill="#321215"/>
<path d="M147.843 40.236H151.941V57.332H147.843V40.236ZM141.42 56.8851C140.638 56.4696 140.042 55.8679 139.633 55.0802C139.225 54.2923 139.02 53.342 139.02 52.229V50.2771C139.02 49.1563 139.225 48.1959 139.633 47.3965C140.042 46.5968 140.638 45.9898 141.42 45.574C142.203 45.1587 143.143 44.951 144.239 44.951C145.067 44.951 145.822 45.1447 146.505 45.5328C147.188 45.9209 147.739 46.4716 148.158 47.1848L147.843 49.889C147.843 49.4738 147.754 49.121 147.574 48.8309C147.395 48.5411 147.133 48.3194 146.789 48.1665C146.445 48.0139 146.029 47.9374 145.541 47.9374C144.773 47.9374 144.177 48.143 143.753 48.5546C143.33 48.9662 143.118 49.5444 143.118 50.2889V52.229C143.118 52.9578 143.33 53.5223 143.753 53.9222C144.177 54.3217 144.773 54.5216 145.541 54.5216C146.029 54.5216 146.445 54.4474 146.789 54.2982C147.133 54.1495 147.395 53.9339 147.574 53.6517C147.754 53.3694 147.843 53.0284 147.843 52.6286L148.053 55.4154C147.734 56.0818 147.245 56.597 146.587 56.9616C145.929 57.3258 145.146 57.5081 144.239 57.5081C143.143 57.5081 142.203 57.3006 141.42 56.8851" fill="#321215"/>
<path d="M164.935 40.236H169.033V57.332H164.935V40.236ZM158.512 56.8851C157.73 56.4696 157.134 55.8679 156.725 55.0802C156.317 54.2923 156.112 53.342 156.112 52.229V50.2771C156.112 49.1563 156.317 48.1959 156.725 47.3965C157.134 46.5968 157.73 45.9898 158.512 45.574C159.295 45.1587 160.235 44.951 161.331 44.951C162.159 44.951 162.914 45.1447 163.597 45.5328C164.28 45.9209 164.831 46.4716 165.249 47.1848L164.935 49.889C164.935 49.4738 164.846 49.121 164.666 48.8309C164.487 48.5411 164.225 48.3194 163.881 48.1665C163.537 48.0139 163.121 47.9374 162.632 47.9374C161.865 47.9374 161.269 48.143 160.845 48.5546C160.421 48.9662 160.21 49.5444 160.21 50.2889V52.229C160.21 52.9578 160.421 53.5223 160.845 53.9222C161.269 54.3217 161.865 54.5216 162.632 54.5216C163.121 54.5216 163.537 54.4474 163.881 54.2982C164.225 54.1495 164.487 53.9339 164.666 53.6517C164.846 53.3694 164.935 53.0284 164.935 52.6286L165.145 55.4154C164.826 56.0818 164.337 56.597 163.679 56.9616C163.021 57.3258 162.238 57.5081 161.331 57.5081C160.235 57.5081 159.295 57.3006 158.512 56.8851" fill="#321215"/>
<path d="M186.349 45.1272L179.44 60.189C179.181 60.7453 178.859 61.1863 178.476 61.5117C178.092 61.8368 177.618 62.0703 177.055 62.2114C176.492 62.3525 175.796 62.4231 174.969 62.4231H174.056V59.2955H174.969C175.407 59.2955 175.774 59.2191 176.068 59.0662C176.362 58.9133 176.584 58.6644 176.733 58.3194L182.491 45.1272H186.349ZM172.008 45.1272H175.866L181.085 55.7328L178.498 58.3312L172.008 45.1272Z" fill="#321215"/>
<path d="M108.104 33.8278C107.112 33.6632 106.179 33.4221 105.307 33.1046C104.435 32.7873 103.655 32.4051 102.966 31.9582L104.866 29.301C105.704 29.842 106.67 30.2592 107.767 30.5532C108.864 30.8472 109.99 30.9942 111.147 30.9942C112.483 30.9942 113.52 30.8161 114.257 30.4591C114.995 30.1027 115.364 29.599 115.364 28.9482V28.9365C115.364 28.482 115.2 28.1214 114.871 27.8548C114.542 27.5886 114.113 27.3926 113.584 27.2668C113.056 27.1417 112.378 27.028 111.551 26.9261C111.521 26.9182 111.493 26.9143 111.468 26.9143C111.443 26.9143 111.416 26.9104 111.386 26.9026L111.057 26.8673C109.601 26.687 108.395 26.4616 107.438 26.1911C106.481 25.9206 105.668 25.4466 105.001 24.7684C104.333 24.0905 103.999 23.1282 103.999 21.8819V21.8701C103.999 20.765 104.313 19.8205 104.941 19.0365C105.569 18.2528 106.481 17.655 107.677 17.2434C108.874 16.8318 110.319 16.626 112.014 16.626C112.792 16.626 113.587 16.6966 114.399 16.8377C115.212 16.9788 116.007 17.1829 116.785 17.4492C117.562 17.7158 118.3 18.0369 118.998 18.4133L117.263 21.141C116.426 20.6866 115.551 20.334 114.639 20.0829C113.727 19.8323 112.852 19.7066 112.014 19.7066C110.758 19.7066 109.786 19.8695 109.098 20.1946C108.41 20.52 108.066 20.9766 108.066 21.5644V21.5761C108.066 22.07 108.246 22.4601 108.605 22.746C108.964 23.0324 109.407 23.2418 109.936 23.3751C110.464 23.5087 111.207 23.6495 112.164 23.7985C112.204 23.8063 112.244 23.8122 112.284 23.8161C112.323 23.82 112.363 23.8259 112.403 23.8338C112.463 23.8416 112.52 23.8514 112.575 23.8632C112.63 23.8749 112.687 23.8847 112.747 23.8926C114.123 24.104 115.272 24.361 116.194 24.6626C117.116 24.9644 117.887 25.4505 118.504 26.1205C119.123 26.7908 119.432 27.7062 119.432 28.8659V28.8894C119.432 29.9792 119.108 30.9119 118.46 31.6878C117.811 32.4639 116.867 33.0558 115.626 33.4632C114.385 33.8709 112.891 34.0748 111.147 34.0748C110.11 34.0748 109.096 33.9924 108.104 33.8278Z" fill="#321215"/>
<path d="M132.366 21.6939H136.449V33.8985H132.366V21.6939ZM127.551 29.113C127.551 29.7008 127.762 30.1577 128.186 30.4828C128.61 30.8082 129.206 30.9706 129.973 30.9706C130.741 30.9706 131.332 30.8042 131.745 30.471C132.159 30.1378 132.366 29.6618 132.366 29.0425L132.576 31.7114C132.286 32.3778 131.805 32.9384 131.132 33.3928C130.459 33.8476 129.639 34.0746 128.672 34.0746C127.007 34.0746 125.721 33.6535 124.814 32.8107C123.907 31.9682 123.453 30.7748 123.453 29.2306V21.6939H127.551V29.113Z" fill="#321215"/>
<path d="M143.259 38.3487C142.287 38.0076 141.532 37.5274 140.994 36.9083L143.745 34.9212C144.094 35.2191 144.513 35.4484 145.002 35.6091C145.49 35.7696 145.998 35.8502 146.527 35.8502C147.384 35.8502 148.085 35.6657 148.628 35.2975C149.171 34.929 149.443 34.4194 149.443 33.769V21.6937H153.541V33.5338C153.541 34.6546 153.269 35.615 152.726 36.4144C152.182 37.2141 151.39 37.8214 150.348 38.2369C149.306 38.6522 148.047 38.8602 146.572 38.8602C145.336 38.8602 144.231 38.6897 143.259 38.3487ZM143.02 33.4515C142.237 33.0362 141.642 32.4345 141.233 31.6466C140.824 30.8589 140.62 29.9086 140.62 28.7953V26.8437C140.62 25.7229 140.824 24.7625 141.233 23.9631C141.642 23.1634 142.237 22.5561 143.02 22.1406C143.803 21.7251 144.742 21.5173 145.839 21.5173C146.666 21.5173 147.422 21.7113 148.105 22.0994C148.787 22.4875 149.339 23.0383 149.757 23.7514L149.443 26.4557C149.443 26.0404 149.353 25.6876 149.174 25.3975C148.995 25.1075 148.733 24.886 148.389 24.7331C148.045 24.5802 147.628 24.5038 147.14 24.5038C146.372 24.5038 145.777 24.7096 145.353 25.1212C144.929 25.5328 144.717 26.1107 144.717 26.8555V28.7953C144.717 29.5245 144.929 30.0887 145.353 30.4885C145.777 30.8883 146.372 31.0883 147.14 31.0883C147.628 31.0883 148.045 31.0138 148.389 30.8648C148.733 30.7161 148.995 30.5003 149.174 30.218C149.353 29.9361 149.443 29.595 149.443 29.1952L149.653 31.9817C149.333 32.6481 148.845 33.1633 148.187 33.5279C147.529 33.8925 146.746 34.0747 145.839 34.0747C144.742 34.0747 143.803 33.8673 143.02 33.4515" fill="#321215"/>
<path d="M166.7 26.1617C166.7 25.5973 166.46 25.1624 165.982 24.8567C165.503 24.5509 164.825 24.398 163.948 24.398C163.37 24.398 162.796 24.4728 162.228 24.6215C161.66 24.7704 161.156 24.9782 160.718 25.2447L158.175 23.2811C158.793 22.7247 159.611 22.2916 160.628 21.9819C161.645 21.6722 162.772 21.5174 164.008 21.5174C165.364 21.5174 166.52 21.6957 167.477 22.0525C168.434 22.4092 169.164 22.9266 169.668 23.6045C170.171 24.2827 170.423 25.0997 170.423 26.0559V33.8984H166.7V26.1617ZM158.647 33.1399C157.824 32.5169 157.413 31.5702 157.413 30.3004C157.413 29.0936 157.874 28.1881 158.796 27.5844C159.718 26.981 161.101 26.6792 162.946 26.6792H166.834L167.044 29.1365H162.961C162.343 29.1365 161.879 29.2325 161.57 29.4246C161.261 29.6167 161.107 29.9087 161.107 30.3004C161.107 30.7003 161.301 30.9962 161.69 31.1883C162.079 31.3804 162.667 31.4761 163.454 31.4761C164.551 31.4761 165.366 31.3784 165.9 31.1824C166.433 30.9864 166.7 30.6809 166.7 30.2651L167.014 32.0406C166.954 32.4797 166.697 32.8521 166.243 33.1575C165.79 33.4633 165.221 33.6926 164.539 33.8455C163.856 33.9984 163.135 34.0748 162.378 34.0748C160.712 34.0748 159.469 33.7632 158.647 33.1399" fill="#321215"/>
<path d="M183.044 24.739C182.754 24.6609 182.42 24.6214 182.042 24.6214C181.214 24.6214 180.574 24.8314 180.12 25.2506C179.666 25.67 179.439 26.2519 179.439 26.9967L179.126 23.822C179.554 23.0929 180.11 22.5267 180.793 22.123C181.476 21.7192 182.226 21.5173 183.044 21.5173C183.692 21.5173 184.277 21.598 184.801 21.7584C185.324 21.9191 185.78 22.1563 186.169 22.4699L183.776 25.0918C183.577 24.935 183.333 24.8174 183.044 24.739ZM175.043 21.6937H179.439V33.8984H175.043V21.6937Z" fill="#321215"/>
</svg>
