<?xml version="1.0" encoding="UTF-8" standalone="no"?>
<svg
   xmlns:dc="http://purl.org/dc/elements/1.1/"
   xmlns:cc="http://creativecommons.org/ns#"
   xmlns:rdf="http://www.w3.org/1999/02/22-rdf-syntax-ns#"
   xmlns:svg="http://www.w3.org/2000/svg"
   xmlns="http://www.w3.org/2000/svg"
   xmlns:sodipodi="http://sodipodi.sourceforge.net/DTD/sodipodi-0.dtd"
   xmlns:inkscape="http://www.inkscape.org/namespaces/inkscape"
   version="1.1"
   id="svg2"
   xml:space="preserve"
   width="1274.6667"
   height="400"
   viewBox="0 0 1274.6667 400"
   sodipodi:docname="LOGO CLUB SUGAR ORIGINAL (1).ai"><metadata
     id="metadata8"><rdf:RDF><cc:Work
         rdf:about=""><dc:format>image/svg+xml</dc:format><dc:type
           rdf:resource="http://purl.org/dc/dcmitype/StillImage" /></cc:Work></rdf:RDF></metadata><defs
     id="defs6"><clipPath
       clipPathUnits="userSpaceOnUse"
       id="clipPath18"><path
         d="M 0,300 H 956 V 0 H 0 Z"
         id="path16" /></clipPath></defs><sodipodi:namedview
     pagecolor="#ffffff"
     bordercolor="#666666"
     borderopacity="1"
     objecttolerance="10"
     gridtolerance="10"
     guidetolerance="10"
     inkscape:pageopacity="0"
     inkscape:pageshadow="2"
     inkscape:window-width="640"
     inkscape:window-height="480"
     id="namedview4" /><g
     id="g10"
     inkscape:groupmode="layer"
     inkscape:label="LOGO CLUB SUGAR ORIGINAL (1)"
     transform="matrix(1.3333333,0,0,-1.3333333,0,400)"><g
       id="g12"><g
         id="g14"
         clip-path="url(#clipPath18)"><g
           id="g20"
           transform="translate(106.5479,94.5)"><path
             d="m 0,0 c -20.979,0 -38.048,17.068 -38.048,38.048 v 79.904 C -38.048,138.932 -20.979,156 0,156 h 197.904 c 20.98,0 38.048,-17.068 38.048,-38.048 V 38.048 C 235.952,17.068 218.884,0 197.904,0 Z"
             style="fill:#bf0304;fill-opacity:1;fill-rule:nonzero;stroke:none"
             id="path22" /></g><g
           id="g24"
           transform="translate(304.4521,253)"><path
             d="m 0,0 h -197.904 c -22.394,0 -40.548,-18.154 -40.548,-40.548 v -79.904 c 0,-22.394 18.154,-40.548 40.548,-40.548 H 0 c 22.394,0 40.548,18.154 40.548,40.548 v 79.904 C 40.548,-18.154 22.394,0 0,0 m 0,-5 c 19.601,0 35.548,-15.947 35.548,-35.548 v -79.904 C 35.548,-140.053 19.601,-156 0,-156 h -197.904 c -19.601,0 -35.548,15.947 -35.548,35.548 v 79.904 c 0,19.601 15.947,35.548 35.548,35.548 H 0"
             style="fill:#bf0304;fill-opacity:1;fill-rule:nonzero;stroke:none"
             id="path26" /></g><g
           id="g28"
           transform="translate(94.627,134.5625)"><path
             d="m 0,0 c -4.775,1.964 -8.454,4.778 -11.039,8.441 -2.584,3.663 -3.876,8.008 -3.876,13.034 v 29.891 c 0,5.061 1.292,9.424 3.876,13.087 2.585,3.663 6.264,6.477 11.039,8.442 4.774,1.964 10.412,2.946 16.909,2.946 6.251,0 11.63,-0.903 16.134,-2.708 4.504,-1.805 8.06,-4.504 10.669,-8.096 2.609,-3.593 4.184,-7.973 4.726,-13.14 H 32.12 c -0.345,2.725 -1.182,5.025 -2.511,6.902 -1.329,1.875 -3.077,3.3 -5.242,4.274 -2.167,0.972 -4.652,1.46 -7.458,1.46 -3.201,0 -5.956,-0.532 -8.27,-1.593 C 6.325,61.878 4.541,60.365 3.286,58.4 2.031,56.436 1.403,54.091 1.403,51.366 V 21.475 c 0,-2.69 0.628,-5.017 1.883,-6.981 1.255,-1.965 3.039,-3.478 5.353,-4.539 2.314,-1.062 5.069,-1.593 8.27,-1.593 2.806,0 5.291,0.469 7.458,1.407 2.165,0.937 3.913,2.353 5.242,4.247 1.329,1.893 2.166,4.221 2.511,6.982 H 48.438 C 47.896,15.83 46.321,11.449 43.712,7.857 41.103,4.265 37.559,1.566 33.08,-0.239 28.6,-2.044 23.209,-2.947 16.909,-2.947 10.412,-2.947 4.774,-1.964 0,0"
             style="fill:#ffffff;fill-opacity:1;fill-rule:nonzero;stroke:none"
             id="path30" /></g><g
           id="g32"
           transform="translate(173.4404,147.7026)"><path
             d="m 0,0 c 0,-1.38 0.455,-2.46 1.366,-3.239 0.91,-0.779 2.202,-1.168 3.876,-1.168 h 4.947 V -15.45 H 2.363 c -5.809,0 -10.314,1.274 -13.513,3.823 -3.2,2.548 -4.799,6.14 -4.799,10.777 V 61.905 H 0 Z"
             style="fill:#ffffff;fill-opacity:1;fill-rule:nonzero;stroke:none"
             id="path34" /></g><path
           d="m 232.76,187.521 h 15.875 V 132.412 H 232.76 Z m -22.594,-36.792 c 0,-2.69 0.984,-4.752 2.953,-6.186 1.968,-1.433 4.775,-2.149 8.418,-2.149 3.592,0 6.361,0.68 8.307,2.043 1.944,1.362 2.916,3.354 2.916,5.973 l 1.034,-9.132 c -1.477,-2.973 -3.705,-5.327 -6.682,-7.061 -2.979,-1.735 -6.658,-2.601 -11.039,-2.601 -7.04,0 -12.43,1.627 -16.171,4.884 -3.741,3.256 -5.611,7.928 -5.611,14.016 v 37.005 h 15.875 z"
           style="fill:#ffffff;fill-opacity:1;fill-rule:nonzero;stroke:none"
           id="path36" /><g
           id="g38"
           transform="translate(287.2812,134.0845)"><path
             d="m 0,0 c -3.053,1.646 -5.292,3.973 -6.719,6.981 l 1.033,10.141 c 0,-1.947 0.443,-3.593 1.33,-4.937 0.885,-1.346 2.152,-2.39 3.802,-3.133 1.649,-0.743 3.679,-1.115 6.092,-1.115 3.592,0 6.399,0.876 8.417,2.628 2.018,1.752 3.028,4.238 3.028,7.459 v 15.822 c 0,3.185 -1.01,5.654 -3.028,7.406 -2.018,1.752 -4.825,2.628 -8.417,2.628 -2.413,0 -4.443,-0.354 -6.092,-1.062 -1.65,-0.708 -2.917,-1.735 -3.802,-3.079 -0.887,-1.345 -1.33,-2.973 -1.33,-4.885 l -1.55,9.345 c 2.018,3.22 4.652,5.707 7.901,7.459 3.248,1.752 6.841,2.628 10.78,2.628 4.478,0 8.331,-0.779 11.555,-2.336 3.224,-1.558 5.673,-3.832 7.348,-6.822 1.673,-2.992 2.51,-6.61 2.51,-10.857 V 17.6 C 32.858,13.353 31.996,9.724 30.273,6.716 28.55,3.708 26.04,1.424 22.742,-0.133 19.443,-1.69 15.506,-2.469 10.928,-2.469 6.694,-2.469 3.051,-1.646 0,0 M -21.635,75.523 H -5.686 V -1.672 h -15.949 z"
             style="fill:#ffffff;fill-opacity:1;fill-rule:nonzero;stroke:none"
             id="path40" /></g><g
           id="g42"
           transform="translate(150.6143,49.0527)"><path
             d="M 0,0 C -1.151,0.435 -2.026,1.067 -2.624,1.898 -3.223,2.73 -3.522,3.734 -3.522,4.914 v 4.291 c 0,1.197 0.299,2.217 0.898,3.059 0.598,0.84 1.473,1.48 2.624,1.92 1.151,0.439 2.535,0.66 4.153,0.66 1.328,0 2.47,-0.145 3.423,-0.436 0.954,-0.289 1.73,-0.726 2.328,-1.311 0.599,-0.585 0.997,-1.312 1.194,-2.182 l -3.907,-1 C 6.994,10.582 6.636,11.08 6.116,11.408 5.597,11.736 4.955,11.9 4.192,11.9 3.088,11.9 2.236,11.664 1.638,11.19 1.039,10.717 0.74,10.045 0.74,9.176 V 4.943 C 0.74,4.102 1.036,3.447 1.627,2.979 2.22,2.51 3.074,2.275 4.192,2.275 c 0.777,0 1.424,0.164 1.944,0.494 0.519,0.329 0.871,0.816 1.055,1.463 L 11.138,3.189 C 10.927,2.328 10.522,1.613 9.924,1.043 9.326,0.473 8.543,0.048 7.576,-0.232 6.609,-0.512 5.468,-0.652 4.153,-0.652 2.535,-0.652 1.151,-0.436 0,0"
             style="fill:#000000;fill-opacity:1;fill-rule:nonzero;stroke:none"
             id="path44" /></g><g
           id="g46"
           transform="translate(193.5205,52.0459)"><path
             d="m 0,0 c 0.533,0.439 0.799,1.056 0.799,1.849 v 4.537 c 0,0.792 -0.266,1.408 -0.799,1.847 -0.533,0.44 -1.292,0.661 -2.279,0.661 -0.96,0 -1.71,-0.221 -2.249,-0.661 C -5.067,7.794 -5.337,7.178 -5.337,6.386 V 1.849 c 0,-0.793 0.27,-1.41 0.809,-1.849 0.539,-0.44 1.289,-0.659 2.249,-0.659 0.987,0 1.746,0.219 2.279,0.659 m -6.215,-3.008 c -1.098,0.425 -1.933,1.048 -2.506,1.87 -0.572,0.822 -0.858,1.807 -0.858,2.957 v 4.654 c 0,1.13 0.286,2.101 0.858,2.913 0.573,0.812 1.408,1.426 2.506,1.842 1.098,0.415 2.417,0.623 3.956,0.623 1.539,0 2.854,-0.208 3.946,-0.623 C 2.778,10.812 3.61,10.198 4.183,9.386 4.755,8.574 5.041,7.603 5.041,6.473 V 1.776 C 5.041,0.636 4.755,-0.341 4.183,-1.152 3.61,-1.964 2.778,-2.583 1.687,-3.008 0.595,-3.433 -0.72,-3.646 -2.259,-3.646 c -1.539,0 -2.858,0.213 -3.956,0.638"
             style="fill:#000000;fill-opacity:1;fill-rule:nonzero;stroke:none"
             id="path48" /></g><g
           id="g50"
           transform="translate(243.125,58.3301)"><path
             d="m 0,0 c 0,0.85 -0.276,1.5 -0.829,1.949 -0.552,0.449 -1.335,0.674 -2.348,0.674 -0.947,0 -1.68,-0.219 -2.199,-0.659 -0.52,-0.44 -0.78,-1.085 -0.78,-1.935 l -0.671,2.58 c 0.539,0.966 1.28,1.702 2.22,2.203 0.94,0.502 1.996,0.754 3.167,0.754 1.21,0 2.239,-0.201 3.087,-0.601 C 2.496,4.563 3.147,3.977 3.601,3.203 4.055,2.43 4.281,1.498 4.281,0.406 V -9.713 H 0 Z m -10.398,0 c 0,0.85 -0.263,1.5 -0.789,1.949 -0.526,0.449 -1.282,0.674 -2.269,0.674 -0.986,0 -1.75,-0.207 -2.289,-0.623 -0.539,-0.416 -0.809,-1.023 -0.809,-1.826 l -0.414,2.58 c 0.552,0.918 1.279,1.617 2.18,2.095 0.901,0.478 1.924,0.717 3.068,0.717 1.184,0 2.194,-0.198 3.029,-0.593 0.835,-0.397 1.466,-0.979 1.894,-1.748 0.427,-0.768 0.641,-1.694 0.641,-2.776 V -9.713 h -4.242 z m -10.417,5.334 h 4.262 V -9.713 h -4.262 z"
             style="fill:#000000;fill-opacity:1;fill-rule:nonzero;stroke:none"
             id="path52" /></g><path
           d="m 281.809,63.664 h 4.242 V 48.617 h -4.242 z m -6.038,-10.045 c 0,-0.734 0.263,-1.298 0.79,-1.689 0.525,-0.391 1.275,-0.587 2.249,-0.587 0.96,0 1.7,0.186 2.219,0.557 0.52,0.373 0.78,0.916 0.78,1.631 l 0.276,-2.492 c -0.395,-0.812 -0.99,-1.455 -1.786,-1.929 -0.796,-0.473 -1.778,-0.71 -2.949,-0.71 -1.881,0 -3.322,0.445 -4.321,1.334 -1,0.889 -1.5,2.164 -1.5,3.827 v 10.103 h 4.242 z"
           style="fill:#000000;fill-opacity:1;fill-rule:nonzero;stroke:none"
           id="path54" /><g
           id="g56"
           transform="translate(320.6904,58.4023)"><path
             d="m 0,0 c 0,0.821 -0.273,1.455 -0.819,1.898 -0.546,0.446 -1.325,0.668 -2.338,0.668 -1,0 -1.762,-0.211 -2.288,-0.63 -0.527,-0.42 -0.79,-1.032 -0.79,-1.834 l -0.414,2.566 c 0.552,0.918 1.273,1.617 2.16,2.102 0.888,0.482 1.911,0.724 3.069,0.724 1.801,0 3.199,-0.442 4.192,-1.326 0.993,-0.885 1.49,-2.144 1.49,-3.776 V -9.785 H 0 Z m -10.497,5.262 h 4.262 V -9.785 h -4.262 z"
             style="fill:#000000;fill-opacity:1;fill-rule:nonzero;stroke:none"
             id="path58" /></g><path
           d="m 348.996,63.664 h 4.242 V 48.617 h -4.242 z m 0,5.973 h 4.242 v -3.131 h -4.242 z"
           style="fill:#000000;fill-opacity:1;fill-rule:nonzero;stroke:none"
           id="path60" /><path
           d="m 387.088,69.695 h 4.262 V 48.617 h -4.262 z m -7.665,-20.693 c -0.861,0.42 -1.516,1.029 -1.963,1.826 -0.447,0.797 -0.671,1.756 -0.671,2.877 v 4.799 c 0,1.141 0.22,2.119 0.661,2.935 0.441,0.817 1.089,1.433 1.944,1.848 0.855,0.416 1.874,0.623 3.058,0.623 1.065,0 2.035,-0.234 2.91,-0.702 0.874,-0.47 1.588,-1.124 2.14,-1.964 l -0.414,-2.625 c 0,0.503 -0.118,0.938 -0.355,1.305 -0.236,0.367 -0.579,0.642 -1.026,0.827 -0.447,0.183 -0.98,0.275 -1.598,0.275 -0.974,0 -1.733,-0.231 -2.279,-0.696 -0.546,-0.463 -0.819,-1.121 -0.819,-1.971 v -4.537 c 0,-0.832 0.273,-1.467 0.819,-1.906 0.546,-0.44 1.305,-0.66 2.279,-0.66 0.618,0 1.151,0.094 1.598,0.283 0.447,0.188 0.79,0.463 1.026,0.826 0.237,0.362 0.355,0.795 0.355,1.297 l 0.276,-2.682 c -0.394,-0.792 -1.006,-1.425 -1.834,-1.898 -0.829,-0.474 -1.829,-0.711 -2.999,-0.711 -1.211,0 -2.246,0.211 -3.108,0.631"
           style="fill:#000000;fill-opacity:1;fill-rule:nonzero;stroke:none"
           id="path62" /><g
           id="g64"
           transform="translate(425.4565,58.8223)"><path
             d="M 0,0 C 0,0.734 -0.273,1.305 -0.819,1.711 -1.365,2.117 -2.144,2.32 -3.157,2.32 -3.867,2.32 -4.505,2.199 -5.071,1.957 -5.636,1.716 -6.077,1.377 -6.393,0.943 l -3.511,0.912 c 0.42,1.026 1.216,1.818 2.387,2.378 1.17,0.56 2.63,0.841 4.38,0.841 1.512,0 2.804,-0.193 3.877,-0.58 C 1.812,4.107 2.634,3.54 3.206,2.791 3.778,2.042 4.064,1.136 4.064,0.073 V -10.205 H 0 Z m -9.076,-9.313 c -1.026,0.739 -1.539,1.858 -1.539,3.356 0,1.574 0.563,2.756 1.687,3.544 1.125,0.788 2.818,1.182 5.081,1.182 h 4.025 l 0.276,-2.566 h -4.262 c -0.934,0 -1.634,-0.182 -2.101,-0.544 -0.467,-0.362 -0.7,-0.901 -0.7,-1.616 0,-0.629 0.249,-1.092 0.749,-1.393 0.5,-0.298 1.263,-0.449 2.289,-0.449 1.196,0 2.091,0.149 2.683,0.444 C -0.296,-7.062 0,-6.615 0,-6.016 L 0.415,-7.783 C 0.27,-8.363 -0.02,-8.85 -0.454,-9.24 c -0.434,-0.392 -0.99,-0.687 -1.667,-0.885 -0.677,-0.197 -1.457,-0.297 -2.338,-0.297 -2.052,0 -3.591,0.369 -4.617,1.109"
             style="fill:#000000;fill-opacity:1;fill-rule:nonzero;stroke:none"
             id="path66" /></g><path
           d="m 463.47,69.695 h 4.262 V 48.617 h -4.262 z m -7.665,-20.693 c -0.862,0.42 -1.517,1.029 -1.963,1.826 -0.447,0.797 -0.672,1.756 -0.672,2.877 v 4.799 c 0,1.141 0.221,2.119 0.662,2.935 0.439,0.817 1.088,1.433 1.943,1.848 0.855,0.416 1.874,0.623 3.058,0.623 1.065,0 2.035,-0.234 2.91,-0.702 0.874,-0.47 1.589,-1.124 2.141,-1.964 l -0.414,-2.625 c 0,0.503 -0.118,0.938 -0.356,1.305 -0.236,0.367 -0.579,0.642 -1.026,0.827 -0.447,0.183 -0.98,0.275 -1.598,0.275 -0.973,0 -1.732,-0.231 -2.279,-0.696 -0.545,-0.463 -0.818,-1.121 -0.818,-1.971 v -4.537 c 0,-0.832 0.273,-1.467 0.818,-1.906 0.547,-0.44 1.306,-0.66 2.279,-0.66 0.618,0 1.151,0.094 1.598,0.283 0.447,0.188 0.79,0.463 1.026,0.826 0.238,0.362 0.356,0.795 0.356,1.297 l 0.276,-2.682 c -0.394,-0.792 -1.006,-1.425 -1.835,-1.898 -0.829,-0.474 -1.829,-0.711 -2.999,-0.711 -1.211,0 -2.246,0.211 -3.107,0.631"
           style="fill:#000000;fill-opacity:1;fill-rule:nonzero;stroke:none"
           id="path68" /><g
           id="g70"
           transform="translate(526.2764,49.0742)"><path
             d="m 0,0 c -0.815,0.449 -1.414,1.085 -1.795,1.906 l 0.276,2.769 C -1.519,4.144 -1.4,3.693 -1.164,3.326 -0.927,2.959 -0.585,2.675 -0.138,2.472 0.31,2.269 0.849,2.167 1.48,2.167 c 0.96,0 1.709,0.239 2.249,0.718 0.54,0.478 0.809,1.157 0.809,2.037 v 4.319 c 0,0.87 -0.269,1.544 -0.809,2.023 C 3.189,11.742 2.44,11.98 1.48,11.98 0.849,11.98 0.31,11.885 -0.138,11.691 -0.585,11.498 -0.927,11.217 -1.164,10.85 -1.4,10.482 -1.519,10.039 -1.519,9.517 l -0.415,2.551 c 0.527,0.879 1.227,1.559 2.102,2.036 0.875,0.479 1.845,0.718 2.91,0.718 1.184,0 2.206,-0.213 3.068,-0.637 C 7.008,13.759 7.662,13.139 8.109,12.322 8.557,11.505 8.78,10.518 8.78,9.357 V 4.806 C 8.78,3.655 8.55,2.668 8.09,1.841 7.629,1.015 6.962,0.389 6.087,-0.036 5.212,-0.461 4.156,-0.674 2.92,-0.674 1.789,-0.674 0.815,-0.449 0,0 m -5.78,14.59 h 4.262 V -6.574 H -5.78 Z"
             style="fill:#000000;fill-opacity:1;fill-rule:nonzero;stroke:none"
             id="path72" /></g><g
           id="g74"
           transform="translate(568.4531,60.7148)"><path
             d="m 0,0 c -0.329,0.072 -0.703,0.108 -1.124,0.108 -1.315,0 -2.342,-0.262 -3.078,-0.79 -0.737,-0.527 -1.111,-1.249 -1.125,-2.167 l -0.414,3.175 c 0.644,0.899 1.457,1.6 2.436,2.102 0.98,0.502 2.076,0.754 3.285,0.754 0.474,0 0.901,-0.051 1.283,-0.153 C 1.645,2.928 1.979,2.775 2.27,2.572 L 0.829,-0.326 C 0.605,-0.182 0.329,-0.072 0,0 m -9.647,2.949 h 4.32 v -15.047 h -4.32 z"
             style="fill:#000000;fill-opacity:1;fill-rule:nonzero;stroke:none"
             id="path76" /></g><g
           id="g78"
           transform="translate(595.5752,49.0889)"><path
             d="m 0,0 c -1.157,0.459 -2.039,1.124 -2.644,1.993 -0.605,0.869 -0.907,1.933 -0.907,3.19 v 3.493 c 0,1.295 0.296,2.401 0.888,3.319 0.592,0.918 1.443,1.617 2.555,2.095 1.111,0.478 2.462,0.718 4.054,0.718 1.539,0 2.851,-0.254 3.937,-0.762 1.085,-0.507 1.91,-1.251 2.475,-2.233 0.566,-0.98 0.849,-2.157 0.849,-3.529 V 5.819 H -0.513 V 8.255 H 7.182 V 9.11 C 7.169,10.019 6.873,10.728 6.294,11.234 5.715,11.741 4.933,11.995 3.946,11.995 2.842,11.995 1.989,11.72 1.392,11.169 0.793,10.618 0.493,9.841 0.493,8.835 V 5.081 C 0.493,4.163 0.812,3.452 1.45,2.95 2.088,2.447 2.992,2.196 4.163,2.196 c 0.776,0 1.421,0.135 1.934,0.407 0.512,0.269 0.881,0.661 1.105,1.173 L 10.97,2.761 C 10.549,1.631 9.77,0.772 8.632,0.188 7.494,-0.396 6.018,-0.688 4.203,-0.688 2.559,-0.688 1.157,-0.459 0,0"
             style="fill:#000000;fill-opacity:1;fill-rule:nonzero;stroke:none"
             id="path80" /></g><g
           id="g82"
           transform="translate(651.2666,58.3301)"><path
             d="m 0,0 c 0,0.85 -0.276,1.5 -0.829,1.949 -0.553,0.449 -1.335,0.674 -2.348,0.674 -0.947,0 -1.68,-0.219 -2.2,-0.659 -0.519,-0.44 -0.779,-1.085 -0.779,-1.935 l -0.671,2.58 c 0.539,0.966 1.279,1.702 2.22,2.203 0.94,0.502 1.996,0.754 3.167,0.754 1.21,0 2.239,-0.201 3.087,-0.601 C 2.495,4.563 3.146,3.977 3.601,3.203 4.054,2.43 4.281,1.498 4.281,0.406 V -9.713 H 0 Z m -10.398,0 c 0,0.85 -0.263,1.5 -0.79,1.949 -0.526,0.449 -1.282,0.674 -2.268,0.674 -0.987,0 -1.75,-0.207 -2.289,-0.623 -0.539,-0.416 -0.809,-1.023 -0.809,-1.826 l -0.415,2.58 c 0.553,0.918 1.28,1.617 2.181,2.095 0.9,0.478 1.924,0.717 3.068,0.717 1.184,0 2.193,-0.198 3.029,-0.593 0.835,-0.397 1.466,-0.979 1.893,-1.748 0.428,-0.768 0.642,-1.694 0.642,-2.776 V -9.713 h -4.242 z m -10.417,5.334 h 4.262 V -9.713 h -4.262 z"
             style="fill:#000000;fill-opacity:1;fill-rule:nonzero;stroke:none"
             id="path84" /></g><path
           d="m 679.572,63.664 h 4.241 V 48.617 h -4.241 z m 0,5.973 h 4.241 v -3.131 h -4.241 z"
           style="fill:#000000;fill-opacity:1;fill-rule:nonzero;stroke:none"
           id="path86" /><path
           d="m 718.138,63.664 h 4.242 V 48.617 h -4.242 z M 712.1,53.619 c 0,-0.734 0.263,-1.298 0.79,-1.689 0.525,-0.391 1.275,-0.587 2.249,-0.587 0.96,0 1.699,0.186 2.219,0.557 0.52,0.373 0.78,0.916 0.78,1.631 l 0.276,-2.492 c -0.394,-0.812 -0.99,-1.455 -1.786,-1.929 -0.796,-0.473 -1.779,-0.71 -2.949,-0.71 -1.882,0 -3.322,0.445 -4.322,1.334 -1,0.889 -1.499,2.164 -1.499,3.827 v 10.103 h 4.242 z"
           style="fill:#000000;fill-opacity:1;fill-rule:nonzero;stroke:none"
           id="path88" /><g
           id="g90"
           transform="translate(767.3379,58.3301)"><path
             d="m 0,0 c 0,0.85 -0.276,1.5 -0.829,1.949 -0.553,0.449 -1.335,0.674 -2.348,0.674 -0.947,0 -1.68,-0.219 -2.2,-0.659 -0.519,-0.44 -0.779,-1.085 -0.779,-1.935 l -0.671,2.58 c 0.539,0.966 1.279,1.702 2.22,2.203 0.94,0.502 1.996,0.754 3.167,0.754 1.21,0 2.239,-0.201 3.087,-0.601 C 2.495,4.563 3.146,3.977 3.601,3.203 4.054,2.43 4.281,1.498 4.281,0.406 V -9.713 H 0 Z m -10.398,0 c 0,0.85 -0.263,1.5 -0.79,1.949 -0.526,0.449 -1.282,0.674 -2.268,0.674 -0.987,0 -1.75,-0.207 -2.289,-0.623 -0.539,-0.416 -0.809,-1.023 -0.809,-1.826 l -0.415,2.58 c 0.553,0.918 1.28,1.617 2.181,2.095 0.9,0.478 1.924,0.717 3.068,0.717 1.184,0 2.193,-0.198 3.029,-0.593 0.835,-0.397 1.466,-0.979 1.893,-1.748 0.428,-0.768 0.642,-1.694 0.642,-2.776 V -9.713 h -4.242 z m -10.417,5.334 h 4.262 V -9.713 h -4.262 z"
             style="fill:#000000;fill-opacity:1;fill-rule:nonzero;stroke:none"
             id="path92" /></g><g
           id="g94"
           transform="translate(822.1416,130.0562)"><path
             d="m 0,0 -26.57,-30.122 c -2.057,-2.332 -5.369,-3.096 -8.24,-1.9 l -37.079,15.442 c -2.163,0.901 -3.758,2.789 -4.285,5.073 l -11.168,48.422 c -0.526,2.283 0.08,4.68 1.63,6.437 l 26.571,30.122 c 2.057,2.332 5.37,3.095 8.239,1.901 l 37.08,-15.443 c 2.162,-0.901 3.758,-2.789 4.284,-5.073 L 1.63,6.437 C 2.157,4.154 1.55,1.757 0,0"
             style="fill:#ffffff;fill-opacity:1;fill-rule:nonzero;stroke:none"
             id="path96" /></g><g
           id="g98"
           transform="translate(881.5967,146.3794)"><path
             d="m 0,0 -33.481,-22.189 c -2.591,-1.718 -5.989,-1.595 -8.451,0.304 L -73.729,2.656 c -1.854,1.432 -2.905,3.67 -2.82,6.011 l 1.789,49.662 c 0.084,2.341 1.293,4.498 3.246,5.793 l 33.481,22.189 c 2.592,1.717 5.989,1.595 8.45,-0.305 L 2.214,61.465 c 1.855,-1.431 2.905,-3.67 2.821,-6.011 L 3.246,5.792 C 3.161,3.451 1.953,1.294 0,0"
             style="fill:#ffffff;fill-opacity:1;fill-rule:nonzero;stroke:none"
             id="path100" /></g><g
           id="g102"
           transform="translate(825.126,97.0762)"><path
             d="m 0,0 c 1.958,2.817 21.392,25.654 24.523,27.389 0.08,0.043 0.124,0.128 0.119,0.22 -0.134,2.31 -0.775,4.581 -1.926,6.65 -1.637,2.957 -4.268,5.046 -6.025,7.855 -0.702,1.122 -1.254,2.778 -2.301,3.63 -0.191,0.154 -0.404,0.24 -0.621,0.309 -0.091,0.03 -0.189,0.04 -0.28,0.061 -0.797,0.137 -1.698,-0.102 -2.422,-0.246 C 10.896,45.822 10.726,45.776 10.554,45.729 10.138,45.579 9.703,45.407 9.222,45.203 7.94,44.659 6.114,43.598 4.453,43.162 2.813,42.727 1.343,42.9 -0.041,43.389 c -1.883,0.66 -3.022,2.292 -3.302,3.82 -0.239,1.305 0.331,2.454 -0.371,3.742 -0.342,0.623 -0.832,1.307 -1.288,1.743 -0.306,0.29 -0.622,0.684 -1.049,0.903 -0.46,0.235 -0.94,0.414 -1.206,0.897 -0.234,0.428 -0.304,0.959 -0.213,1.442 0.064,0.335 0.402,1.256 0.319,1.679 -0.062,0.32 -0.41,0.28 -0.627,0.354 -0.507,0.182 -0.855,0.404 -0.983,0.567 -0.54,0.661 -0.589,1.302 -0.442,2.15 0.041,0.24 0.315,0.583 0.411,0.893 0.242,0.754 0.318,1.563 -0.154,2.059 -0.576,0.607 -1.69,0.048 -2.395,0.031 -0.84,-0.018 -1.676,0.244 -2.329,0.742 -0.116,0.088 -0.6,0.756 -0.458,2.009 0.095,0.885 0.998,3.158 1.685,5.883 0.784,3.103 1.344,6.664 1.162,7.322 -0.473,1.692 -1.581,1.132 -2.515,2.165 -0.535,0.594 -0.458,4.945 -0.546,9.293 -0.037,2.085 -0.191,4.162 -0.226,5.822 -0.001,0.045 -0.016,0.086 -0.04,0.121 -2.578,3.695 -1.502,9.538 0.65,13.295 3.258,5.698 9.823,9.394 15.657,12.003 2.853,1.272 5.909,2.371 8.96,3.039 8.9,1.946 19.664,0.678 26.566,-5.041 6.29,-5.219 11.654,-13.183 13.091,-21.325 0.756,-4.283 0.687,-9.606 -0.524,-13.891 -0.422,-1.484 -0.952,-2.894 -1.418,-4.298 -0.583,-1.756 -1.331,-5.952 -0.923,-9.86 0.077,-0.747 0.729,-5.145 2.516,-9.018 1.874,-4.066 4.479,-8.657 6.814,-12.455 0.077,-0.127 0.25,-0.145 0.355,-0.04 2.184,2.205 4.219,4.563 6.036,7.115 12.033,16.91 8.599,42.141 -0.933,59.309 -5.476,9.865 -12.454,16.355 -20.767,20.365 -14.827,7.152 -34.43,7.743 -49.401,0.81 -9.858,-4.566 -17.679,-12.175 -20.772,-21.485 -0.066,-0.195 -0.317,-0.221 -0.411,-0.039 -0.939,1.812 -4.969,6.816 -9.746,10.142 -6.11,4.254 -13.467,6.234 -17.755,6.703 -11.417,1.249 -23.155,-1.618 -32.784,-8.048 -6.491,-4.334 -11.802,-10.348 -15.773,-17.143 -6.198,-10.604 -9.194,-23.257 -8.462,-35.176 0.88,-14.35 7.147,-27.628 16.786,-38.388 7.367,-8.223 16.833,-14.8 25.955,-19.247 0.387,-0.211 0.776,-0.42 1.166,-0.622 10e-4,0.024 10e-4,0.048 10e-4,0.072 3.465,-1.626 6.867,-2.949 10.064,-3.923 0.2,-0.061 0.367,0.165 0.259,0.348 -2.028,3.399 -7.522,14.669 -7.307,25.331 0.149,7.446 2.577,14.743 5.26,20.533 0.089,0.193 0.359,0.166 0.423,-0.038 0.794,-2.566 2.105,-4.841 3.854,-6.394 3.187,-2.828 7.754,-2.815 10.492,-0.392 1.815,1.607 3.127,4.485 1.366,7.36 -0.126,0.205 -0.448,0.108 -0.426,-0.134 0.308,-3.456 -4.59,-4.217 -6.584,-0.788 -1.614,2.772 -1.673,6.128 -0.953,9.359 1.088,4.876 3.729,9.318 7.136,12.851 2.483,2.572 5.49,4.347 8.192,6.633 1.789,1.514 3.395,3.266 4.019,5.228 0.053,0.167 0.252,0.228 0.373,0.104 3.134,-3.185 7.724,-10.702 8.078,-17.146 0.01,-0.171 0.02,-0.34 0.022,-0.509 0.035,-1.691 -1.158,-3.313 -1.074,-5.256 0.005,-0.109 0.084,-0.204 0.187,-0.226 1.504,-0.322 3.148,-0.028 5.464,0.89 0.233,0.093 0.429,-0.214 0.244,-0.387 -1.452,-1.37 -3.154,-2.228 -4.905,-2.796 -0.13,-0.042 -0.197,-0.186 -0.141,-0.314 0.796,-1.794 2.09,-4.099 3.588,-6.122 1.765,-2.383 3.5,-3.293 3.229,-4.686 -0.223,-1.136 -1.77,-2.153 -3.534,-2.455 -0.132,-0.022 -0.222,-0.15 -0.187,-0.283 0.059,-0.224 0.182,-0.555 0.39,-0.881 0.341,-0.537 0.884,-1.068 1.095,-1.227 0.31,-0.235 0.579,-0.491 0.704,-0.817 0.275,-0.717 -0.177,-1.486 -0.618,-2.029 -0.337,-0.411 -0.726,-0.814 -1.024,-1.08 -0.11,-0.099 -0.104,-0.273 0.016,-0.361 0.202,-0.149 0.493,-0.391 0.719,-0.701 0.34,-0.467 0.542,-1.229 0.273,-1.784 -0.137,-0.281 -0.34,-0.482 -0.575,-0.64 -0.434,-0.296 -0.976,-0.443 -1.386,-0.692 -0.197,-0.119 -0.401,-0.265 -0.389,-0.459 0.026,-0.393 0.398,-1.521 0.571,-2.582 0.203,-1.232 0.187,-2.422 -0.233,-3.054 -0.516,-0.769 -1.222,-1.391 -2.025,-1.851 -0.942,-0.539 -2.011,-0.794 -3.088,-0.84 -2.596,-0.109 -5.708,0.528 -8.377,0.971 -1.44,0.24 -4.489,0.415 -5.828,-0.387 -0.87,-0.521 -4.078,-6.513 -4.319,-13.462 -0.025,-0.723 -0.033,-1.445 -0.026,-2.161 0.07,-7.305 3.307,-14.134 8.547,-19.074 4.204,-3.963 23.762,-19.624 23.762,-19.624 z"
             style="fill:#bf0304;fill-opacity:1;fill-rule:nonzero;stroke:none"
             id="path104" /></g><g
           id="g106"
           transform="translate(383.3857,106.3296)"><path
             d="m 0,0 h 19.191 c 4.949,0 8.779,0.909 11.493,2.729 2.712,1.82 4.069,4.395 4.069,7.727 v 17.973 c 0,3.331 -1.357,5.906 -4.069,7.726 -2.714,1.82 -6.544,2.73 -11.493,2.73 H 0 v 11.086 h 18.861 c 6.671,0 12.363,-0.855 17.074,-2.562 4.71,-1.708 8.294,-4.199 10.75,-7.474 2.456,-3.276 3.684,-7.223 3.684,-11.842 V 10.792 c 0,-4.396 -1.182,-8.23 -3.547,-11.506 -2.364,-3.275 -5.911,-5.823 -10.639,-7.642 -4.73,-1.821 -10.522,-2.73 -17.377,-2.73 L 0,-11.086 Z M -7.588,49.971 H 7.478 V -11.086 H -7.588 Z"
             style="fill:#000000;fill-opacity:1;fill-rule:nonzero;stroke:none"
             id="path108" /></g><g
           id="g110"
           transform="translate(482.1387,122.8745)"><path
             d="m 0,0 c 0,2.016 -0.88,3.569 -2.639,4.661 -1.759,1.092 -4.253,1.638 -7.478,1.638 -2.127,0 -4.235,-0.267 -6.324,-0.798 -2.089,-0.532 -3.941,-1.274 -5.554,-2.226 l -9.348,7.013 c 2.273,1.987 5.28,3.534 9.019,4.64 3.739,1.106 7.881,1.659 12.427,1.659 4.985,0 9.238,-0.637 12.756,-1.911 3.52,-1.274 6.204,-3.122 8.056,-5.543 1.851,-2.422 2.777,-5.34 2.777,-8.755 V -27.631 H 0 Z m -29.61,-24.922 c -3.025,2.225 -4.536,5.606 -4.536,10.141 0,4.31 1.694,7.544 5.085,9.7 3.391,2.155 8.477,3.233 15.259,3.233 H 0.495 l 0.77,-8.776 h -15.011 c -2.274,0 -3.979,-0.343 -5.114,-1.029 -1.137,-0.686 -1.705,-1.729 -1.705,-3.128 0,-1.428 0.714,-2.485 2.144,-3.171 1.43,-0.686 3.593,-1.028 6.489,-1.028 4.033,0 7.029,0.349 8.991,1.049 1.961,0.7 2.941,1.791 2.941,3.276 l 1.155,-6.341 c -0.219,-1.568 -1.164,-2.898 -2.832,-3.989 -1.669,-1.092 -3.758,-1.911 -6.268,-2.457 -2.512,-0.546 -5.16,-0.819 -7.946,-0.819 -6.123,0 -10.695,1.113 -13.719,3.339"
             style="fill:#000000;fill-opacity:1;fill-rule:nonzero;stroke:none"
             id="path112" /></g><path
           d="m 543.609,156.3 h 15.066 V 95.243 H 543.609 Z M 519.992,96.839 c -2.878,1.484 -5.068,3.633 -6.571,6.446 -1.503,2.814 -2.254,6.208 -2.254,10.183 v 6.971 c 0,4.003 0.751,7.433 2.254,10.288 1.503,2.856 3.693,5.024 6.571,6.509 2.877,1.483 6.332,2.225 10.365,2.225 3.042,0 5.82,-0.692 8.33,-2.078 2.511,-1.386 4.538,-3.353 6.077,-5.9 l -1.155,-9.658 c 0,1.483 -0.33,2.743 -0.99,3.779 -0.659,1.035 -1.622,1.827 -2.887,2.373 -1.264,0.545 -2.795,0.818 -4.59,0.818 -2.824,0 -5.014,-0.734 -6.572,-2.204 -1.558,-1.47 -2.337,-3.535 -2.337,-6.194 v -6.929 c 0,-2.603 0.779,-4.619 2.337,-6.047 1.558,-1.427 3.748,-2.141 6.572,-2.141 1.795,0 3.326,0.265 4.59,0.798 1.265,0.531 2.228,1.301 2.887,2.309 0.66,1.008 0.99,2.226 0.99,3.654 l 0.77,-9.953 c -1.174,-2.38 -2.969,-4.22 -5.389,-5.522 -2.419,-1.301 -5.298,-1.952 -8.633,-1.952 -4.033,0 -7.488,0.741 -10.365,2.225"
           style="fill:#000000;fill-opacity:1;fill-rule:nonzero;stroke:none"
           id="path114" /><path
           d="m 606.455,156.3 h 15.066 V 95.243 H 606.455 Z M 582.838,96.839 c -2.878,1.484 -5.068,3.633 -6.571,6.446 -1.503,2.814 -2.254,6.208 -2.254,10.183 v 6.971 c 0,4.003 0.751,7.433 2.254,10.288 1.503,2.856 3.693,5.024 6.571,6.509 2.877,1.483 6.332,2.225 10.365,2.225 3.042,0 5.819,-0.692 8.33,-2.078 2.511,-1.386 4.537,-3.353 6.076,-5.9 l -1.154,-9.658 c 0,1.483 -0.33,2.743 -0.99,3.779 -0.659,1.035 -1.622,1.827 -2.887,2.373 -1.265,0.545 -2.796,0.818 -4.591,0.818 -2.823,0 -5.013,-0.734 -6.571,-2.204 -1.559,-1.47 -2.337,-3.535 -2.337,-6.194 v -6.929 c 0,-2.603 0.778,-4.619 2.337,-6.047 1.558,-1.427 3.748,-2.141 6.571,-2.141 1.795,0 3.326,0.265 4.591,0.798 1.265,0.531 2.228,1.301 2.887,2.309 0.66,1.008 0.99,2.226 0.99,3.654 l 0.77,-9.953 c -1.174,-2.38 -2.969,-4.22 -5.389,-5.522 -2.419,-1.301 -5.298,-1.952 -8.633,-1.952 -4.033,0 -7.488,0.741 -10.365,2.225"
           style="fill:#000000;fill-opacity:1;fill-rule:nonzero;stroke:none"
           id="path116" /><g
           id="g118"
           transform="translate(685.1924,138.8315)"><path
             d="m 0,0 -25.404,-53.792 c -0.954,-1.987 -2.136,-3.562 -3.547,-4.724 -1.412,-1.161 -3.153,-1.995 -5.224,-2.499 -2.071,-0.504 -4.629,-0.756 -7.671,-0.756 H -45.2 v 11.17 h 3.354 c 1.613,0 2.96,0.273 4.042,0.819 1.08,0.546 1.897,1.435 2.447,2.667 L -14.188,0 Z m -52.733,0 h 14.186 l 19.192,-37.877 -9.514,-9.28 z"
             style="fill:#000000;fill-opacity:1;fill-rule:nonzero;stroke:none"
             id="path120" /></g><g
           id="g122"
           transform="translate(397.4888,179.1865)"><path
             d="m 0,0 c -3.648,0.588 -7.075,1.449 -10.282,2.583 -3.209,1.133 -6.076,2.498 -8.607,4.094 l 6.984,9.49 c 3.08,-1.932 6.634,-3.422 10.668,-4.472 4.032,-1.05 8.174,-1.575 12.426,-1.575 4.913,0 8.725,0.636 11.438,1.911 2.713,1.273 4.069,3.072 4.069,5.396 v 0.042 c 0,1.623 -0.604,2.911 -1.814,3.863 -1.21,0.951 -2.786,1.651 -4.73,2.1 -1.943,0.447 -4.435,0.853 -7.477,1.217 -0.111,0.028 -0.212,0.042 -0.303,0.042 -0.092,0 -0.192,0.014 -0.303,0.042 l -1.209,0.126 c -5.353,0.644 -9.788,1.449 -13.307,2.415 -3.519,0.966 -6.507,2.659 -8.963,5.081 -2.456,2.421 -3.684,5.858 -3.684,10.309 v 0.042 c 0,3.947 1.155,7.32 3.464,10.12 2.31,2.799 5.664,4.934 10.063,6.404 4.399,1.47 9.713,2.205 15.946,2.205 2.859,0 5.782,-0.252 8.77,-0.756 2.988,-0.504 5.912,-1.233 8.771,-2.184 2.859,-0.952 5.572,-2.099 8.139,-3.443 L 33.68,45.31 c -3.079,1.623 -6.296,2.882 -9.651,3.779 -3.354,0.895 -6.571,1.344 -9.65,1.344 -4.619,0 -8.193,-0.582 -10.723,-1.743 -2.529,-1.162 -3.794,-2.793 -3.794,-4.892 v -0.042 c 0,-1.764 0.66,-3.157 1.98,-4.178 1.32,-1.023 2.95,-1.771 4.894,-2.247 1.943,-0.477 4.674,-0.98 8.193,-1.512 0.146,-0.028 0.293,-0.049 0.44,-0.063 0.146,-0.014 0.293,-0.035 0.44,-0.063 0.219,-0.028 0.43,-0.063 0.632,-0.105 0.202,-0.042 0.413,-0.077 0.632,-0.105 5.06,-0.755 9.283,-1.673 12.675,-2.75 3.391,-1.078 6.223,-2.814 8.495,-5.207 2.274,-2.394 3.41,-5.663 3.41,-9.805 v -0.084 c 0,-3.892 -1.192,-7.223 -3.574,-9.994 C 35.695,4.871 32.223,2.757 27.658,1.302 23.095,-0.154 17.604,-0.882 11.189,-0.882 7.377,-0.882 3.647,-0.588 0,0"
             style="fill:#000000;fill-opacity:1;fill-rule:nonzero;stroke:none"
             id="path124" /></g><path
           d="m 486.7,222.522 h 15.012 V 178.934 H 486.7 Z m -17.706,-26.497 c 0,-2.099 0.778,-3.731 2.337,-4.892 1.558,-1.162 3.748,-1.742 6.571,-1.742 2.823,0 4.994,0.594 6.516,1.784 1.52,1.19 2.282,2.89 2.282,5.102 l 0.77,-9.532 c -1.064,-2.38 -2.832,-4.382 -5.306,-6.005 -2.475,-1.624 -5.49,-2.435 -9.046,-2.435 -6.122,0 -10.851,1.504 -14.186,4.514 -3.336,3.009 -5.004,7.271 -5.004,12.786 v 26.917 h 15.066 z"
           style="fill:#000000;fill-opacity:1;fill-rule:nonzero;stroke:none"
           id="path126" /><g
           id="g128"
           transform="translate(526.7539,163.0405)"><path
             d="m 0,0 c -3.574,1.218 -6.352,2.933 -8.331,5.144 l 10.118,7.097 c 1.282,-1.064 2.822,-1.883 4.619,-2.457 1.795,-0.573 3.665,-0.861 5.609,-0.861 3.152,0 5.727,0.659 7.725,1.974 1.998,1.316 2.997,3.136 2.997,5.459 V 59.482 H 37.804 V 17.196 C 37.804,13.193 36.805,9.763 34.807,6.908 32.809,4.052 29.895,1.883 26.063,0.399 22.232,-1.084 17.604,-1.827 12.18,-1.827 7.634,-1.827 3.574,-1.218 0,0 m -0.88,17.49 c -2.878,1.483 -5.068,3.632 -6.571,6.446 -1.503,2.813 -2.254,6.207 -2.254,10.183 v 6.97 c 0,4.003 0.751,7.433 2.254,10.288 1.503,2.856 3.693,5.025 6.571,6.509 2.877,1.484 6.332,2.226 10.365,2.226 3.042,0 5.82,-0.693 8.33,-2.079 2.511,-1.386 4.538,-3.353 6.077,-5.9 l -1.155,-9.658 c 0,1.483 -0.33,2.743 -0.99,3.779 -0.659,1.036 -1.622,1.827 -2.887,2.373 -1.264,0.546 -2.796,0.819 -4.59,0.819 -2.824,0 -5.014,-0.735 -6.572,-2.205 C 6.14,45.771 5.361,43.707 5.361,41.047 v -6.928 c 0,-2.604 0.779,-4.619 2.337,-6.047 1.558,-1.428 3.748,-2.142 6.572,-2.142 1.794,0 3.326,0.266 4.59,0.798 1.265,0.531 2.228,1.302 2.887,2.31 0.66,1.007 0.99,2.225 0.99,3.653 l 0.77,-9.952 c -1.174,-2.38 -2.969,-4.22 -5.389,-5.522 -2.419,-1.302 -5.298,-1.953 -8.633,-1.953 -4.033,0 -7.488,0.741 -10.365,2.226"
             style="fill:#000000;fill-opacity:1;fill-rule:nonzero;stroke:none"
             id="path130" /></g><g
           id="g132"
           transform="translate(612.9414,206.5654)"><path
             d="m 0,0 c 0,2.016 -0.88,3.569 -2.639,4.661 -1.759,1.092 -4.253,1.638 -7.478,1.638 -2.127,0 -4.235,-0.267 -6.324,-0.798 -2.089,-0.532 -3.941,-1.274 -5.554,-2.226 l -9.348,7.013 c 2.273,1.987 5.28,3.534 9.019,4.64 3.739,1.106 7.881,1.659 12.427,1.659 4.985,0 9.238,-0.637 12.756,-1.911 3.52,-1.274 6.204,-3.122 8.056,-5.543 1.851,-2.422 2.777,-5.34 2.777,-8.755 V -27.631 H 0 Z m -29.61,-24.922 c -3.025,2.225 -4.536,5.606 -4.536,10.141 0,4.31 1.694,7.544 5.085,9.7 3.391,2.155 8.477,3.233 15.259,3.233 H 0.495 l 0.77,-8.776 h -15.011 c -2.274,0 -3.979,-0.343 -5.114,-1.029 -1.137,-0.686 -1.705,-1.729 -1.705,-3.128 0,-1.428 0.714,-2.485 2.144,-3.171 1.43,-0.686 3.593,-1.028 6.489,-1.028 4.033,0 7.029,0.349 8.991,1.049 1.961,0.7 2.941,1.791 2.941,3.276 l 1.155,-6.341 c -0.219,-1.568 -1.164,-2.898 -2.832,-3.989 -1.669,-1.092 -3.758,-1.911 -6.268,-2.457 -2.512,-0.546 -5.16,-0.819 -7.946,-0.819 -6.123,0 -10.695,1.113 -13.719,3.339"
             style="fill:#000000;fill-opacity:1;fill-rule:nonzero;stroke:none"
             id="path134" /></g><g
           id="g136"
           transform="translate(673.0371,211.6465)"><path
             d="m 0,0 c -1.063,0.279 -2.291,0.42 -3.684,0.42 -3.044,0 -5.398,-0.75 -7.066,-2.247 -1.668,-1.498 -2.502,-3.576 -2.502,-6.236 l -1.154,11.338 c 1.575,2.604 3.619,4.626 6.131,6.068 2.51,1.442 5.269,2.163 8.275,2.163 2.383,0 4.537,-0.288 6.461,-0.861 1.925,-0.574 3.602,-1.421 5.031,-2.541 L 2.694,-1.26 C 1.961,-0.7 1.063,-0.28 0,0 m -29.418,10.876 h 16.166 v -43.588 h -16.166 z"
             style="fill:#000000;fill-opacity:1;fill-rule:nonzero;stroke:none"
             id="path138" /></g></g></g></g></svg>
