<svg width="259" height="81" viewBox="0 0 259 81" fill="none" xmlns="http://www.w3.org/2000/svg">
<path d="M28.866 55.485C23.1824 55.485 18.558 50.8766 18.558 45.212V23.638C18.558 17.9734 23.1824 13.365 28.866 13.365H82.4823C88.1662 13.365 92.7903 17.9734 92.7903 23.638V45.212C92.7903 50.8766 88.1662 55.485 82.4823 55.485H28.866Z" fill="#F42F43"/>
<path d="M82.4823 12.69H28.8661C22.7991 12.69 17.8808 17.5916 17.8808 23.638V45.2121C17.8808 51.2584 22.7991 56.16 28.8661 56.16H82.4823C88.5493 56.16 93.4676 51.2584 93.4676 45.2121V23.638C93.4676 17.5916 88.5493 12.69 82.4823 12.69ZM82.4823 14.04C87.7926 14.04 92.113 18.3457 92.113 23.638V45.2121C92.113 50.5043 87.7926 54.81 82.4823 54.81H28.8661C23.5558 54.81 19.2354 50.5043 19.2354 45.2121V23.638C19.2354 18.3457 23.5558 14.04 28.8661 14.04H82.4823Z" fill="#F42F43"/>
<path d="M25.6364 44.6681C24.3428 44.1379 23.3461 43.3781 22.6457 42.3891C21.9457 41.4001 21.5956 40.2269 21.5956 38.8699V30.7993C21.5956 29.4328 21.9457 28.2548 22.6457 27.2658C23.3461 26.2768 24.3428 25.517 25.6364 24.9865C26.9298 24.4562 28.4572 24.1911 30.2174 24.1911C31.9109 24.1911 33.3682 24.4349 34.5885 24.9222C35.8087 25.4096 36.7721 26.1383 37.4789 27.1081C38.1857 28.0783 38.6124 29.2609 38.7593 30.6559H34.3384C34.2449 29.9202 34.0182 29.2992 33.6581 28.7924C33.2981 28.2862 32.8245 27.9014 32.2379 27.6384C31.6509 27.376 30.9776 27.2442 30.2174 27.2442C29.3502 27.2442 28.6038 27.3879 27.9769 27.6743C27.35 27.9611 26.8667 28.3696 26.5267 28.9001C26.1867 29.4304 26.0165 30.0636 26.0165 30.7993V38.8699C26.0165 39.5962 26.1867 40.2245 26.5267 40.7548C26.8667 41.2853 27.35 41.6938 27.9769 41.9803C28.6038 42.267 29.3502 42.4104 30.2174 42.4104C30.9776 42.4104 31.6509 42.2838 32.2379 42.0305C32.8245 41.7775 33.2981 41.3952 33.6581 40.8838C34.0182 40.3727 34.2449 39.7442 34.3384 38.9987H38.7593C38.6124 40.394 38.1857 41.5769 37.4789 42.5468C36.7721 43.5166 35.8119 44.2453 34.5985 44.7327C33.3848 45.22 31.9242 45.4638 30.2174 45.4638C28.4572 45.4638 26.9298 45.1984 25.6364 44.6681Z" fill="white"/>
<path d="M46.9886 41.1203C46.9886 41.4929 47.1118 41.7845 47.3587 41.9948C47.6052 42.2052 47.9552 42.3102 48.4087 42.3102H49.749V45.2918H47.6288C46.055 45.2918 44.8345 44.9478 43.9678 44.2596C43.1009 43.5716 42.6677 42.6018 42.6677 41.3498V24.406H46.9886V41.1203Z" fill="white"/>
<path d="M63.0595 30.3693H67.3603V45.2488H63.0595V30.3693ZM56.9383 40.3032C56.9383 41.0295 57.2049 41.5862 57.7383 41.9734C58.2715 42.3603 59.032 42.5536 60.0189 42.5536C60.9921 42.5536 61.7422 42.37 62.2695 42.002C62.7961 41.6343 63.0595 41.0964 63.0595 40.3893L63.3396 42.8549C62.9394 43.6577 62.3358 44.2932 61.5293 44.7614C60.7222 45.2299 59.7255 45.4637 58.5386 45.4637C56.6313 45.4637 55.1711 45.0244 54.1576 44.145C53.144 43.2659 52.6374 42.0044 52.6374 40.3607V30.3693H56.9383V40.3032Z" fill="white"/>
<path d="M77.8304 44.7972C77.0033 44.3528 76.3967 43.7245 76.0101 42.9123L76.2899 40.1743C76.2899 40.6999 76.4099 41.1444 76.6502 41.5072C76.89 41.8707 77.2333 42.1525 77.6803 42.3532C78.127 42.5538 78.677 42.6542 79.3307 42.6542C80.3039 42.6542 81.0643 42.4177 81.6111 41.9446C82.1578 41.4716 82.4314 40.8004 82.4314 39.9307V35.6588C82.4314 34.7988 82.1578 34.1322 81.6111 33.6592C81.0643 33.1861 80.3039 32.9496 79.3307 32.9496C78.677 32.9496 78.127 33.0452 77.6803 33.2363C77.2333 33.4275 76.89 33.7048 76.6502 34.0677C76.4099 34.4308 76.2899 34.8704 76.2899 35.3866L75.87 32.8635C76.4167 31.9941 77.1303 31.3226 78.0105 30.8495C78.8905 30.3765 79.8639 30.14 80.9311 30.14C82.1442 30.14 83.1881 30.3503 84.0615 30.7707C84.935 31.1913 85.5985 31.8053 86.0523 32.6126C86.5055 33.4205 86.7323 34.3973 86.7323 35.544V40.0452C86.7323 41.1919 86.4987 42.1717 86.0319 42.9839C85.5651 43.796 84.8851 44.4127 83.9916 44.8331C83.0979 45.2535 82.0313 45.4638 80.791 45.4638C79.6439 45.4638 78.6569 45.2416 77.8304 44.7972ZM71.969 24.406H76.2899V45.2486H71.969V24.406Z" fill="white"/>
<path d="M19.4018 65.5958C19.09 65.4783 18.8529 65.3077 18.6909 65.0833C18.5286 64.8587 18.4476 64.5876 18.4476 64.269V63.1104C18.4476 62.7872 18.5286 62.5118 18.6909 62.2845C18.8529 62.0577 19.09 61.8849 19.4018 61.7661C19.7136 61.6476 20.0886 61.5879 20.5269 61.5879C20.8867 61.5879 21.1961 61.627 21.4543 61.7056C21.7128 61.7836 21.923 61.9016 22.085 62.0596C22.2473 62.2175 22.3551 62.4138 22.4085 62.6487L21.35 62.9187C21.2966 62.7386 21.1996 62.6042 21.0588 62.5156C20.9182 62.4271 20.7442 62.3828 20.5375 62.3828C20.2384 62.3828 20.0076 62.4465 19.8456 62.5745C19.6833 62.7022 19.6023 62.8836 19.6023 63.1183V64.2612C19.6023 64.4882 19.6825 64.6651 19.8426 64.7914C20.0033 64.9181 20.2346 64.9815 20.5375 64.9815C20.748 64.9815 20.9233 64.9372 21.0642 64.8481C21.2048 64.7593 21.3002 64.6278 21.35 64.4531L22.4193 64.7347C22.3622 64.9672 22.2524 65.1603 22.0904 65.3142C21.9284 65.4681 21.7163 65.5828 21.4543 65.6584C21.1923 65.734 20.8832 65.7718 20.5269 65.7718C20.0886 65.7718 19.7136 65.7135 19.4018 65.5958Z" fill="#321215"/>
<path d="M31.026 64.7876C31.1704 64.6691 31.2424 64.5025 31.2424 64.2884V63.0634C31.2424 62.8495 31.1704 62.6832 31.026 62.5647C30.8816 62.4459 30.6759 62.3862 30.4085 62.3862C30.1485 62.3862 29.9453 62.4459 29.7992 62.5647C29.6532 62.6832 29.5801 62.8495 29.5801 63.0634V64.2884C29.5801 64.5025 29.6532 64.6691 29.7992 64.7876C29.9453 64.9064 30.1485 64.9655 30.4085 64.9655C30.6759 64.9655 30.8816 64.9064 31.026 64.7876ZM29.3422 65.5998C29.0447 65.485 28.8185 65.3168 28.6633 65.0949C28.5083 64.8729 28.4308 64.607 28.4308 64.2965V63.0399C28.4308 62.7348 28.5083 62.4726 28.6633 62.2534C28.8185 62.0341 29.0447 61.8684 29.3422 61.756C29.6397 61.644 29.997 61.5878 30.414 61.5878C30.8309 61.5878 31.1872 61.644 31.483 61.756C31.7786 61.8684 32.004 62.0341 32.1592 62.2534C32.3142 62.4726 32.3917 62.7348 32.3917 63.0399V64.3081C32.3917 64.6159 32.3142 64.8797 32.1592 65.0987C32.004 65.3179 31.7786 65.485 31.483 65.5998C31.1872 65.7145 30.8309 65.772 30.414 65.772C29.997 65.772 29.6397 65.7145 29.3422 65.5998Z" fill="#321215"/>
<path d="M44.4649 63.0909C44.4649 62.8614 44.3901 62.6859 44.2403 62.5646C44.0907 62.4434 43.8786 62.3827 43.6041 62.3827C43.3476 62.3827 43.149 62.4418 43.0084 62.5606C42.8675 62.6794 42.7971 62.8535 42.7971 63.083L42.6153 62.3864C42.7613 62.1256 42.9621 61.9269 43.2167 61.7916C43.4714 61.6561 43.7575 61.5881 44.0747 61.5881C44.4026 61.5881 44.6813 61.6423 44.9111 61.7503C45.1411 61.8589 45.3174 62.0171 45.4404 62.2261C45.5634 62.4348 45.6247 62.6864 45.6247 62.9813V65.7134H44.4649V63.0909ZM41.6478 63.0909C41.6478 62.8614 41.5766 62.6859 41.4341 62.5646C41.2916 62.4434 41.0868 62.3827 40.8194 62.3827C40.5522 62.3827 40.3452 62.4386 40.1992 62.5509C40.0532 62.6632 39.98 62.8271 39.98 63.0439L39.8679 62.3473C40.0174 62.0994 40.2144 61.9107 40.4585 61.7816C40.7026 61.6526 40.9797 61.5881 41.2897 61.5881C41.6104 61.5881 41.8841 61.6415 42.1103 61.7482C42.3365 61.8554 42.5075 62.0125 42.6234 62.2201C42.7391 62.4275 42.7971 62.6775 42.7971 62.9696V65.7134H41.6478V63.0909ZM38.8257 61.6507H39.9803V65.7134H38.8257V61.6507Z" fill="#321215"/>
<path d="M54.9452 61.6507H56.0944V65.7134H54.9452V61.6507ZM53.3093 64.3629C53.3093 64.5611 53.3806 64.7133 53.5234 64.8189C53.6656 64.9245 53.8688 64.9774 54.1327 64.9774C54.3928 64.9774 54.5932 64.9272 54.7338 64.827C54.8747 64.7263 54.9452 64.5797 54.9452 64.3866L55.0199 65.0595C54.9129 65.2787 54.7517 65.4523 54.5361 65.5803C54.3204 65.708 54.0544 65.772 53.7371 65.772C53.2275 65.772 52.8371 65.6519 52.5665 65.4118C52.2956 65.1718 52.1601 64.8276 52.1601 64.3785V61.6507H53.3093V64.3629Z" fill="#321215"/>
<path d="M65.4789 63.0714C65.4789 62.8497 65.4049 62.6785 65.257 62.5589C65.1091 62.4385 64.898 62.3786 64.6236 62.3786C64.3527 62.3786 64.1462 62.4355 64.0037 62.5487C63.861 62.6621 63.7897 62.8273 63.7897 63.0439L63.6775 62.351C63.8271 62.1032 64.0224 61.9144 64.2627 61.7835C64.5033 61.6534 64.7805 61.588 65.0942 61.588C65.5821 61.588 65.9609 61.7074 66.2299 61.946C66.4989 62.185 66.6336 62.5249 66.6336 62.9656V65.7133H65.4789V63.0714ZM62.635 61.6507H63.7897V65.7133H62.635V61.6507Z" fill="#321215"/>
<path d="M73.1475 61.6507H74.2968V65.7134H73.1475V61.6507ZM73.1475 60.038H74.2968V60.8834H73.1475V60.038Z" fill="#321215"/>
<path d="M83.4674 60.0223H84.622V65.7134H83.4674V60.0223ZM81.3908 65.6094C81.1575 65.496 80.9801 65.3316 80.859 65.1164C80.7379 64.9012 80.6772 64.6423 80.6772 64.3396V63.0439C80.6772 62.7358 80.7368 62.4718 80.8563 62.2515C80.9758 62.0309 81.1513 61.8645 81.3829 61.7525C81.6146 61.6402 81.8906 61.5843 82.2114 61.5843C82.4999 61.5843 82.7627 61.6475 82.9998 61.7738C83.2366 61.9007 83.43 62.0773 83.5796 62.3041L83.4674 63.0129C83.4674 62.877 83.4354 62.7596 83.3712 62.6605C83.3073 62.5614 83.2144 62.4872 83.0933 62.4372C82.9722 62.3878 82.8278 62.363 82.6603 62.363C82.3965 62.363 82.1908 62.4253 82.0429 62.5509C81.895 62.6759 81.821 62.8536 81.821 63.0831V64.308C81.821 64.5327 81.895 64.7041 82.0429 64.8227C82.1908 64.9415 82.3965 65.0009 82.6603 65.0009C82.8278 65.0009 82.9722 64.9755 83.0933 64.9245C83.2144 64.8737 83.3073 64.7994 83.3712 64.7014C83.4354 64.6037 83.4674 64.4868 83.4674 64.3512L83.5422 65.0754C83.4354 65.2892 83.2696 65.4601 83.0453 65.5878C82.8207 65.7158 82.5498 65.7798 82.2328 65.7798C81.9047 65.7798 81.6243 65.7228 81.3908 65.6094Z" fill="#321215"/>
<path d="M93.8622 62.958C93.8622 62.7598 93.7882 62.6057 93.6403 62.496C93.4924 62.3864 93.2813 62.3316 93.0069 62.3316C92.8146 62.3316 92.6417 62.3643 92.4884 62.4296C92.3353 62.4947 92.2158 62.5862 92.1302 62.7034L91.179 62.4572C91.2928 62.1801 91.5084 61.9663 91.8257 61.8151C92.1427 61.6639 92.5382 61.588 93.0123 61.588C93.422 61.588 93.772 61.6401 94.0627 61.7446C94.3531 61.8491 94.5758 62.0022 94.7308 62.2044C94.8857 62.4067 94.9632 62.6513 94.9632 62.9383V65.7134H93.8622V62.958ZM91.4033 65.4725C91.1254 65.273 90.9864 64.9709 90.9864 64.5664C90.9864 64.1414 91.1389 63.8223 91.4434 63.6095C91.7482 63.3968 92.2069 63.2904 92.82 63.2904H93.9104L93.9852 63.9832H92.8305C92.5775 63.9832 92.3878 64.0323 92.2613 64.1301C92.1348 64.2278 92.0717 64.3733 92.0717 64.5664C92.0717 64.7362 92.1391 64.8612 92.2746 64.9425C92.4101 65.023 92.6168 65.0637 92.8947 65.0637C93.2188 65.0637 93.4612 65.0235 93.6216 64.9439C93.782 64.8647 93.8622 64.7441 93.8622 64.5823L93.9746 65.0594C93.9354 65.216 93.8568 65.3475 93.7392 65.4528C93.6216 65.5586 93.471 65.6383 93.2876 65.6918C93.1042 65.7449 92.8928 65.7719 92.6542 65.7719C92.0982 65.7719 91.6813 65.6723 91.4033 65.4725Z" fill="#321215"/>
<path d="M104.161 60.0223H105.315V65.7134H104.161V60.0223ZM102.084 65.6094C101.851 65.496 101.673 65.3316 101.552 65.1164C101.431 64.9012 101.37 64.6423 101.37 64.3396V63.0439C101.37 62.7358 101.43 62.4718 101.55 62.2515C101.669 62.0309 101.844 61.8645 102.076 61.7525C102.308 61.6402 102.584 61.5843 102.905 61.5843C103.193 61.5843 103.456 61.6475 103.693 61.7738C103.93 61.9007 104.123 62.0773 104.273 62.3041L104.161 63.0129C104.161 62.877 104.129 62.7596 104.064 62.6605C104 62.5614 103.908 62.4872 103.786 62.4372C103.665 62.3878 103.521 62.363 103.353 62.363C103.09 62.363 102.884 62.4253 102.736 62.5509C102.588 62.6759 102.514 62.8536 102.514 63.0831V64.308C102.514 64.5327 102.588 64.7041 102.736 64.8227C102.884 64.9415 103.09 65.0009 103.353 65.0009C103.521 65.0009 103.665 64.9755 103.786 64.9245C103.908 64.8737 104 64.7994 104.064 64.7014C104.129 64.6037 104.161 64.4868 104.161 64.3512L104.236 65.0754C104.129 65.2892 103.963 65.4601 103.738 65.5878C103.514 65.7158 103.243 65.7798 102.926 65.7798C102.598 65.7798 102.317 65.7228 102.084 65.6094Z" fill="#321215"/>
<path d="M121.176 65.59C120.956 65.4687 120.793 65.297 120.69 65.0754L120.765 64.3277C120.765 64.4711 120.797 64.5929 120.861 64.692C120.925 64.791 121.018 64.8677 121.139 64.9225C121.26 64.9773 121.406 65.0049 121.577 65.0049C121.837 65.0049 122.04 64.9404 122.187 64.811C122.333 64.682 122.406 64.4986 122.406 64.261V63.0949C122.406 62.86 122.333 62.678 122.187 62.5487C122.04 62.4196 121.837 62.3554 121.577 62.3554C121.406 62.3554 121.26 62.381 121.139 62.4334C121.018 62.4855 120.925 62.5614 120.861 62.6605C120.797 62.7598 120.765 62.8794 120.765 63.0204L120.652 62.3316C120.795 62.0943 120.985 61.9107 121.222 61.7819C121.459 61.6526 121.722 61.588 122.01 61.588C122.331 61.588 122.608 61.6455 122.841 61.76C123.075 61.875 123.252 62.0424 123.373 62.263C123.495 62.4836 123.555 62.7501 123.555 63.0636V64.2924C123.555 64.6031 123.493 64.8696 123.368 65.0929C123.243 65.3159 123.062 65.4849 122.825 65.5997C122.588 65.7144 122.302 65.772 121.967 65.772C121.661 65.772 121.397 65.7112 121.176 65.59ZM119.61 61.6507H120.765V67.365H119.61V61.6507Z" fill="#321215"/>
<path d="M132.603 62.447C132.514 62.4276 132.412 62.4179 132.298 62.4179C131.942 62.4179 131.664 62.4886 131.464 62.6312C131.265 62.7735 131.163 62.9684 131.16 63.2163L131.048 62.359C131.222 62.1163 131.442 61.927 131.708 61.7915C131.973 61.6559 132.27 61.5879 132.597 61.5879C132.726 61.5879 132.842 61.6017 132.945 61.6292C133.049 61.6565 133.139 61.6978 133.218 61.7526L132.828 62.535C132.767 62.4962 132.692 62.4665 132.603 62.447ZM129.989 61.6508H131.16V65.7135H129.989V61.6508Z" fill="#321215"/>
<path d="M139.951 65.586C139.637 65.4621 139.398 65.2825 139.235 65.0479C139.071 64.8133 138.989 64.526 138.989 64.1866V63.2435C138.989 62.8938 139.069 62.5952 139.229 62.3473C139.39 62.0995 139.62 61.9107 139.922 61.7817C140.223 61.6526 140.589 61.5878 141.02 61.5878C141.437 61.5878 141.792 61.6564 142.087 61.7936C142.38 61.9305 142.604 62.1313 142.757 62.3965C142.91 62.6611 142.987 62.9789 142.987 63.3493V64.0149H139.812V63.3571H141.897V63.1263C141.893 62.8809 141.813 62.6894 141.656 62.5528C141.499 62.4159 141.287 62.3473 141.02 62.3473C140.721 62.3473 140.49 62.4216 140.328 62.5704C140.166 62.7191 140.084 62.9289 140.084 63.2005V64.2141C140.084 64.462 140.171 64.654 140.344 64.7895C140.517 64.9253 140.761 64.9931 141.079 64.9931C141.289 64.9931 141.464 64.9566 141.603 64.8832C141.741 64.8106 141.841 64.7047 141.902 64.5665L142.923 64.8405C142.809 65.1456 142.598 65.3776 142.289 65.5352C141.981 65.6929 141.581 65.7718 141.09 65.7718C140.644 65.7718 140.264 65.7099 139.951 65.586Z" fill="#321215"/>
<path d="M155.039 63.0909C155.039 62.8614 154.964 62.6859 154.814 62.5646C154.664 62.4434 154.453 62.3827 154.178 62.3827C153.921 62.3827 153.723 62.4418 153.582 62.5606C153.441 62.6794 153.371 62.8535 153.371 63.083L153.189 62.3864C153.335 62.1256 153.536 61.9269 153.791 61.7916C154.045 61.6561 154.331 61.5881 154.649 61.5881C154.976 61.5881 155.255 61.6423 155.485 61.7503C155.715 61.8589 155.891 62.0171 156.014 62.2261C156.137 62.4348 156.199 62.6864 156.199 62.9813V65.7134H155.039V63.0909ZM152.222 63.0909C152.222 62.8614 152.15 62.6859 152.008 62.5646C151.865 62.4434 151.66 62.3827 151.393 62.3827C151.126 62.3827 150.919 62.4386 150.773 62.5509C150.627 62.6632 150.554 62.8271 150.554 63.0439L150.442 62.3473C150.591 62.0994 150.788 61.9107 151.032 61.7816C151.276 61.6526 151.554 61.5881 151.864 61.5881C152.184 61.5881 152.458 61.6415 152.684 61.7482C152.91 61.8554 153.081 62.0125 153.197 62.2201C153.313 62.4275 153.371 62.6775 153.371 62.9696V65.7134H152.222V63.0909ZM149.4 61.6507H150.554V65.7134H149.4V61.6507Z" fill="#321215"/>
<path d="M162.707 61.6507H163.856V65.7134H162.707V61.6507ZM162.707 60.038H163.856V60.8834H162.707V60.038Z" fill="#321215"/>
<path d="M173.156 61.6507H174.305V65.7134H173.156V61.6507ZM171.52 64.3629C171.52 64.5611 171.591 64.7133 171.734 64.8189C171.876 64.9245 172.079 64.9774 172.343 64.9774C172.603 64.9774 172.803 64.9272 172.944 64.827C173.085 64.7263 173.156 64.5797 173.156 64.3866L173.23 65.0595C173.124 65.2787 172.962 65.4523 172.747 65.5803C172.531 65.708 172.265 65.772 171.948 65.772C171.438 65.772 171.048 65.6519 170.777 65.4118C170.506 65.1718 170.37 64.8276 170.37 64.3785V61.6507H171.52V64.3629Z" fill="#321215"/>
<path d="M186.485 63.0909C186.485 62.8614 186.41 62.6859 186.26 62.5646C186.11 62.4434 185.899 62.3827 185.624 62.3827C185.368 62.3827 185.169 62.4418 185.028 62.5606C184.888 62.6794 184.817 62.8535 184.817 63.083L184.635 62.3864C184.781 62.1256 184.982 61.9269 185.237 61.7916C185.491 61.6561 185.777 61.5881 186.095 61.5881C186.423 61.5881 186.701 61.6423 186.931 61.7503C187.161 61.8589 187.337 62.0171 187.46 62.2261C187.583 62.4348 187.645 62.6864 187.645 62.9813V65.7134H186.485V63.0909ZM183.668 63.0909C183.668 62.8614 183.597 62.6859 183.454 62.5646C183.311 62.4434 183.106 62.3827 182.839 62.3827C182.572 62.3827 182.365 62.4386 182.219 62.5509C182.073 62.6632 182 62.8271 182 63.0439L181.888 62.3473C182.037 62.0994 182.234 61.9107 182.478 61.7816C182.722 61.6526 183 61.5881 183.31 61.5881C183.63 61.5881 183.904 61.6415 184.13 61.7482C184.357 61.8554 184.527 62.0125 184.643 62.2201C184.759 62.4275 184.817 62.6775 184.817 62.9696V65.7134H183.668V63.0909ZM180.846 61.6507H182V65.7134H180.846V61.6507Z" fill="#321215"/>
<path d="M102.062 46.866C100.848 46.5268 99.8341 46.0325 99.0208 45.3823C98.2073 44.7327 97.6207 43.9251 97.2607 42.9599L101.381 41.6409C101.741 42.5298 102.352 43.2131 103.212 43.6908C104.072 44.1689 105.109 44.4076 106.323 44.4076C107.776 44.4076 108.913 44.1781 109.733 43.7194C110.553 43.2606 110.964 42.6253 110.964 41.8129V40.9243C110.964 40.3317 110.743 39.8562 110.303 39.4979C109.863 39.1396 109.313 38.8578 108.653 38.6523C107.993 38.4468 107.116 38.2246 106.023 37.9857C105.996 37.9857 105.966 37.9835 105.933 37.9784C105.899 37.9738 105.869 37.9665 105.842 37.9568L105.622 37.8995C104.009 37.5939 102.692 37.2688 101.672 36.9248C100.651 36.5809 99.781 36.0338 99.0609 35.2835C98.3408 34.5334 97.9808 33.518 97.9808 32.2374V31.6785C97.9808 30.4934 98.3308 29.4828 99.0309 28.6466C99.7309 27.8104 100.741 27.1773 102.062 26.7472C103.382 26.3171 104.969 26.1022 106.823 26.1022C108.196 26.1022 109.416 26.2647 110.483 26.5895C111.55 26.9146 112.454 27.3901 113.194 28.0159C113.934 28.6418 114.484 29.4088 114.845 30.3166L110.923 31.6785C110.55 30.8374 110 30.1924 109.273 29.7431C108.546 29.2941 107.696 29.0695 106.723 29.0695C105.322 29.0695 104.229 29.2892 103.442 29.7288C102.655 30.1686 102.262 30.7848 102.262 31.578V32.2087C102.262 32.8203 102.492 33.3125 102.952 33.6851C103.412 34.0577 103.975 34.3496 104.642 34.5596C105.309 34.77 106.243 34.9897 107.443 35.219C107.509 35.2287 107.569 35.2406 107.623 35.2549C107.676 35.2692 107.736 35.2813 107.803 35.2905C107.843 35.31 107.893 35.3243 107.953 35.3337C108.013 35.3434 108.076 35.3529 108.143 35.3623C109.636 35.6777 110.864 36.0122 111.824 36.3657C112.784 36.7194 113.594 37.2594 114.254 37.9857C114.914 38.712 115.244 39.6821 115.244 40.8955V41.7986C115.244 42.9836 114.891 43.9918 114.184 44.8234C113.477 45.6547 112.45 46.2879 111.104 46.7226C109.756 47.1576 108.136 47.3749 106.243 47.3749C104.669 47.3749 103.275 47.2051 102.062 46.866Z" fill="#321215"/>
<path d="M129.695 32.2804H133.996V47.1598H129.695V32.2804ZM123.574 42.2145C123.574 42.9408 123.84 43.4973 124.374 43.8845C124.907 44.2714 125.668 44.465 126.654 44.465C127.628 44.465 128.378 44.2811 128.905 43.9131C129.431 43.5453 129.695 43.0078 129.695 42.3004L129.975 44.766C129.575 45.5687 128.971 46.2043 128.165 46.6725C127.358 47.1409 126.361 47.3747 125.174 47.3747C123.267 47.3747 121.807 46.9355 120.793 46.0561C119.779 45.1769 119.273 43.9155 119.273 42.2717V32.2804H123.574V42.2145Z" fill="#321215"/>
<path d="M140.515 52.2917C139.375 51.6799 138.671 50.7816 138.404 49.5968L142.505 48.6651C142.692 49.2383 143.029 49.6803 143.516 49.991C144.002 50.3013 144.619 50.4568 145.366 50.4568C146.366 50.4568 147.146 50.2419 147.706 49.8117C148.266 49.3816 148.547 48.7798 148.547 48.0054V32.2804H152.868V47.8194C152.868 48.9564 152.567 49.9287 151.967 50.7362C151.367 51.5438 150.484 52.1578 149.317 52.5784C148.15 52.9988 146.74 53.2092 145.086 53.2092C143.179 53.2092 141.655 52.9032 140.515 52.2917ZM140.785 46.7872C139.918 46.3763 139.255 45.7742 138.795 44.9809C138.334 44.1879 138.105 43.237 138.105 42.1284V37.3836C138.105 36.2561 138.328 35.2906 138.775 34.4879C139.221 33.6852 139.878 33.0761 140.745 32.6603C141.612 32.2445 142.645 32.0366 143.846 32.0366C144.926 32.0366 145.913 32.2685 146.806 32.7321C147.7 33.1957 148.42 33.8477 148.967 34.6888L148.547 37.2546C148.547 36.7481 148.427 36.3158 148.187 35.9572C147.947 35.5989 147.603 35.3244 147.157 35.1329C146.709 34.942 146.166 34.8464 145.526 34.8464C144.539 34.8464 143.769 35.0757 143.215 35.5344C142.662 35.9931 142.385 36.6479 142.385 37.4981V42.0425C142.385 42.8547 142.662 43.4808 143.215 43.9203C143.769 44.3599 144.539 44.5797 145.526 44.5797C146.166 44.5797 146.709 44.489 147.157 44.3073C147.603 44.1258 147.947 43.8555 148.187 43.4973C148.427 43.139 148.547 42.7116 148.547 42.2145L148.827 44.8232C148.44 45.607 147.827 46.2332 146.986 46.7011C146.146 47.1693 145.132 47.4036 143.946 47.4036C142.705 47.4036 141.652 47.1979 140.785 46.7872Z" fill="#321215"/>
<path d="M167.578 37.0682C167.578 36.3422 167.302 35.7781 166.748 35.3767C166.195 34.9754 165.405 34.7746 164.378 34.7746C163.657 34.7746 163.01 34.8942 162.437 35.1331C161.864 35.3721 161.417 35.7066 161.097 36.1364L157.536 35.2333C157.963 34.2205 158.769 33.4367 159.957 32.8824C161.143 32.3284 162.624 32.0511 164.398 32.0511C165.931 32.0511 167.241 32.2422 168.329 32.6245C169.415 33.0069 170.249 33.5685 170.829 34.3088C171.409 35.0494 171.699 35.9453 171.699 36.9964V47.1597H167.578V37.0682ZM158.376 46.2782C157.336 45.5473 156.816 44.4411 156.816 42.9599C156.816 41.4022 157.386 40.234 158.526 39.455C159.667 38.6763 161.384 38.2867 163.677 38.2867H167.758L168.038 40.8239H163.718C162.77 40.8239 162.06 41.0032 161.587 41.3615C161.113 41.7198 160.877 42.2527 160.877 42.9599C160.877 43.5811 161.13 44.0399 161.637 44.3358C162.143 44.6322 162.917 44.7802 163.958 44.7802C165.171 44.7802 166.078 44.6347 166.678 44.3431C167.278 44.0517 167.578 43.6098 167.578 43.0171L167.998 44.7659C167.851 45.3394 167.558 45.8197 167.118 46.2066C166.678 46.5935 166.115 46.8851 165.428 47.0809C164.741 47.2769 163.951 47.3749 163.058 47.3749C160.977 47.3749 159.416 47.0093 158.376 46.2782Z" fill="#321215"/>
<path d="M186.09 35.1976C185.756 35.1257 185.376 35.0901 184.95 35.0901C183.616 35.0901 182.575 35.3504 181.829 35.8712C181.082 36.3923 180.702 37.1065 180.689 38.0142L180.269 34.8749C180.922 33.9863 181.745 33.2935 182.739 32.7964C183.733 32.2996 184.843 32.051 186.07 32.051C186.55 32.051 186.983 32.1012 187.37 32.2016C187.757 32.3018 188.097 32.4525 188.39 32.6531L186.93 35.5199C186.703 35.3768 186.423 35.2691 186.09 35.1976ZM176.308 32.2805H180.689V47.1599H176.308V32.2805Z" fill="#321215"/>
<path d="M222.735 45.8848L215.537 54.0178C214.979 54.6474 214.082 54.8537 213.304 54.5308L203.259 50.3614C202.673 50.1182 202.241 49.6084 202.098 48.9917L199.072 35.9178C198.93 35.3014 199.094 34.6542 199.514 34.1798L206.713 26.0469C207.27 25.4172 208.167 25.2112 208.945 25.5336L218.99 29.7032C219.576 29.9465 220.009 30.4562 220.151 31.0729L223.177 44.1469C223.319 44.7633 223.155 45.4105 222.735 45.8848Z" fill="white"/>
<path d="M238.843 41.4776L229.772 47.4686C229.07 47.9325 228.149 47.8993 227.482 47.3865L218.868 40.7605C218.366 40.3738 218.081 39.7696 218.104 39.1375L218.589 25.7287C218.611 25.0967 218.939 24.5143 219.468 24.1646L228.539 18.1736C229.241 17.71 230.161 17.743 230.828 18.256L239.443 24.882C239.945 25.2684 240.23 25.8729 240.207 26.505L239.722 39.9137C239.699 40.5458 239.372 41.1282 238.843 41.4776Z" fill="white"/>
<path d="M223.544 54.7894C224.074 54.0288 229.339 47.8629 230.187 47.3944C230.209 47.3828 230.221 47.3598 230.22 47.335C230.183 46.7113 230.01 46.0981 229.698 45.5395C229.254 44.7411 228.542 44.1771 228.066 43.4187C227.875 43.1157 227.726 42.6686 227.442 42.4386C227.39 42.397 227.333 42.3738 227.274 42.3551C227.249 42.347 227.223 42.3443 227.198 42.3387C226.982 42.3017 226.738 42.3662 226.542 42.4051C226.496 42.4175 226.45 42.4299 226.403 42.4426C226.29 42.4831 226.172 42.5295 226.042 42.5846C225.695 42.7315 225.2 43.018 224.75 43.1357C224.306 43.2531 223.907 43.2064 223.533 43.0744C223.022 42.8962 222.714 42.4556 222.638 42.043C222.573 41.6907 222.728 41.3804 222.537 41.0327C222.445 40.8645 222.312 40.6798 222.188 40.5621C222.106 40.4838 222.02 40.3774 221.904 40.3182C221.78 40.2548 221.65 40.2065 221.578 40.0761C221.514 39.9605 221.495 39.8171 221.52 39.6867C221.537 39.5963 221.629 39.3476 221.606 39.2334C221.589 39.147 221.495 39.1578 221.436 39.1378C221.299 39.0887 221.205 39.0287 221.17 38.9847C221.024 38.8062 221.011 38.6332 221.05 38.4042C221.061 38.3394 221.136 38.2468 221.162 38.1631C221.227 37.9595 221.248 37.7411 221.12 37.6072C220.964 37.4433 220.662 37.5942 220.471 37.5988C220.244 37.6037 220.017 37.5329 219.84 37.3985C219.809 37.3747 219.678 37.1943 219.716 36.856C219.742 36.6171 219.986 36.0034 220.173 35.2676C220.385 34.4298 220.537 33.4683 220.487 33.2907C220.359 32.8338 220.059 32.985 219.806 32.7061C219.661 32.5458 219.682 31.371 219.658 30.197C219.648 29.6341 219.606 29.0733 219.597 28.6251C219.597 28.6129 219.593 28.6019 219.586 28.5924C218.888 27.5948 219.179 26.0172 219.762 25.0028C220.645 23.4643 222.423 22.4664 224.004 21.762C224.777 21.4185 225.605 21.1218 226.431 20.9414C228.843 20.416 231.759 20.7584 233.629 22.3025C235.333 23.7116 236.786 25.8619 237.175 28.0602C237.38 29.2167 237.361 30.6539 237.033 31.8108C236.919 32.2115 236.775 32.5922 236.649 32.9713C236.491 33.4454 236.289 34.5783 236.399 35.6335C236.42 35.8352 236.597 37.0226 237.081 38.0683C237.588 39.1662 238.294 40.4057 238.927 41.4312C238.948 41.4655 238.994 41.4703 239.023 41.442C239.615 40.8466 240.166 40.21 240.658 39.5209C243.918 34.9552 242.988 28.1429 240.405 23.5075C238.922 20.844 237.031 19.0917 234.779 18.009C230.762 16.0779 225.451 15.9183 221.395 17.7903C218.725 19.0231 216.606 21.0775 215.768 23.5912C215.75 23.6439 215.682 23.6509 215.657 23.6017C215.402 23.1125 214.31 21.7614 213.016 20.8634C211.361 19.7148 209.368 19.1802 208.206 19.0536C205.113 18.7164 201.933 19.4904 199.324 21.2265C197.566 22.3967 196.127 24.0205 195.051 25.8552C193.372 28.7182 192.56 32.1345 192.758 35.3527C192.997 39.2272 194.695 42.8122 197.306 45.7174C199.302 47.9376 201.866 49.7134 204.338 50.9141C204.443 50.9711 204.548 51.0275 204.654 51.0821C204.654 51.0756 204.654 51.0691 204.654 51.0626C205.593 51.5016 206.514 51.8589 207.38 52.1218C207.435 52.1383 207.48 52.0773 207.451 52.0279C206.901 51.1101 205.413 48.0672 205.471 45.1885C205.511 43.1781 206.169 41.2079 206.896 39.6446C206.92 39.5925 206.993 39.5998 207.011 39.6549C207.226 40.3477 207.581 40.9619 208.055 41.3812C208.918 42.1448 210.156 42.1413 210.897 41.4871C211.389 41.0532 211.744 40.2761 211.267 39.4999C211.233 39.4445 211.146 39.4707 211.152 39.5361C211.235 40.4692 209.908 40.6746 209.368 39.7488C208.931 39.0004 208.915 38.0943 209.11 37.2219C209.405 35.9054 210.12 34.706 211.043 33.7521C211.716 33.0577 212.531 32.5784 213.263 31.9612C213.747 31.5524 214.182 31.0794 214.352 30.5496C214.366 30.5046 214.42 30.4881 214.453 30.5216C215.302 31.3815 216.545 33.4111 216.641 35.151C216.644 35.1972 216.647 35.2428 216.647 35.2884C216.657 35.745 216.333 36.1829 216.356 36.7075C216.357 36.737 216.379 36.7626 216.407 36.7686C216.814 36.8555 217.26 36.7761 217.887 36.5283C217.95 36.5031 218.003 36.586 217.953 36.6327C217.56 37.0026 217.099 37.2343 216.624 37.3877C216.589 37.399 216.571 37.4379 216.586 37.4724C216.802 37.9568 217.152 38.5792 217.558 39.1254C218.036 39.7688 218.506 40.0145 218.433 40.3906C218.373 40.6973 217.953 40.9719 217.476 41.0535C217.44 41.0594 217.415 41.094 217.425 41.1299C217.441 41.1903 217.474 41.2797 217.531 41.3677C217.623 41.5127 217.77 41.6561 217.827 41.699C217.911 41.7625 217.984 41.8316 218.018 41.9196C218.092 42.1132 217.97 42.3208 217.85 42.4674C217.759 42.5784 217.654 42.6872 217.573 42.759C217.543 42.7858 217.545 42.8328 217.577 42.8565C217.632 42.8967 217.711 42.9621 217.772 43.0458C217.864 43.1719 217.919 43.3776 217.846 43.5275C217.809 43.6033 217.754 43.6576 217.69 43.7003C217.573 43.7802 217.426 43.8199 217.315 43.8871C217.262 43.9192 217.206 43.9587 217.209 44.011C217.217 44.1171 217.317 44.4217 217.364 44.7082C217.419 45.0408 217.415 45.3621 217.301 45.5328C217.161 45.7404 216.97 45.9083 216.752 46.0325C216.497 46.1781 216.208 46.2469 215.916 46.2593C215.213 46.2888 214.369 46.1168 213.646 45.9972C213.256 45.9324 212.43 45.8851 212.067 46.1016C211.832 46.2423 210.963 47.8602 210.897 49.7364C210.891 49.9316 210.888 50.1265 210.89 50.3199C210.909 52.2922 211.786 54.136 213.206 55.4698C214.345 56.5398 219.643 60.7683 219.643 60.7683L223.544 54.7894Z" fill="#F42F43"/>
</svg>
